<?xml version="1.0" encoding="utf-8"?>
<svg width="1530.7715px" height="973.80054px" viewBox="0 0 1530.7715 973.80054" version="1.1" xmlns:xlink="http://www.w3.org/1999/xlink" xmlns="http://www.w3.org/2000/svg">
  <defs>
    <linearGradient gradientUnits="userSpaceOnUse" x1="-52.04416" y1="734.5169" x2="1.323757" y2="-110.48322" id="gradient_1">
      <stop offset="0%" stop-color="#FEF4E9" />
      <stop offset="100%" stop-color="#E9D2BA" />
    </linearGradient>
    <linearGradient gradientUnits="userSpaceOnUse" x1="-56.87681" y1="771.30084" x2="-1.8134316" y2="-115.78948" id="gradient_2">
      <stop offset="0%" stop-color="#FEF4E9" />
      <stop offset="100%" stop-color="#E9D2BA" />
    </linearGradient>
    <linearGradient gradientUnits="userSpaceOnUse" x1="408.01187" y1="0" x2="408.01187" y2="816.02356" id="gradient_3">
      <stop offset="0%" stop-color="#64626F" />
      <stop offset="100%" stop-color="#64626F" stop-opacity="0.34117648" />
    </linearGradient>
    <radialGradient gradientUnits="objectBoundingBox" cx="48.142914%" cy="39.428593%" fx="48.142914%" fy="39.428593%" r="74.737335%" gradientTransform="translate(0.48142913,0.39428592),rotate(88.57617),scale(1,0.88558775),translate(-0.48142913,-0.39428592)" id="gradient_4">
      <stop offset="0%" stop-color="#F7C97C" />
      <stop offset="100%" stop-color="#D55561" />
    </radialGradient>
    <linearGradient gradientUnits="userSpaceOnUse" x1="65.96689" y1="131.42696" x2="5.157692" y2="17.654242" id="gradient_5">
      <stop offset="0%" stop-color="#64B581" />
      <stop offset="100%" stop-color="#8DE691" />
    </linearGradient>
    <linearGradient gradientUnits="userSpaceOnUse" x1="82.33312" y1="65.72196" x2="-0.5077686" y2="24.927126" id="gradient_6">
      <stop offset="0%" stop-color="#64B581" />
      <stop offset="100%" stop-color="#8DE691" />
    </linearGradient>
    <linearGradient gradientUnits="userSpaceOnUse" x1="36.29025" y1="44.13587" x2="78.46412" y2="130.44574" id="gradient_7">
      <stop offset="0%" stop-color="#C4CC57" />
      <stop offset="100%" stop-color="#DBE272" />
    </linearGradient>
    <linearGradient gradientUnits="userSpaceOnUse" x1="218.71686" y1="108.869095" x2="195.17822" y2="-16.67344" id="gradient_8">
      <stop offset="0%" stop-color="#D55561" />
      <stop offset="100%" stop-color="#EB8B75" />
    </linearGradient>
    <linearGradient gradientUnits="userSpaceOnUse" x1="66.32723" y1="115.71212" x2="-15.693086" y2="49.04031" id="gradient_9">
      <stop offset="0%" stop-color="#C14752" />
      <stop offset="100%" stop-color="#C14752" stop-opacity="0" />
    </linearGradient>
    <linearGradient gradientUnits="userSpaceOnUse" x1="44.62307" y1="53.85071" x2="17.32616" y2="-11.24809" id="gradient_10">
      <stop offset="0%" stop-color="#C14752" />
      <stop offset="100%" stop-color="#C14752" stop-opacity="0" />
    </linearGradient>
    <linearGradient gradientUnits="userSpaceOnUse" x1="230.8529" y1="138.31485" x2="205.35666" y2="19.637838" id="gradient_11">
      <stop offset="0%" stop-color="#D55561" />
      <stop offset="100%" stop-color="#EB8B75" />
    </linearGradient>
    <linearGradient gradientUnits="userSpaceOnUse" x1="108.86929" y1="151.04317" x2="-15.692138" y2="49.040268" id="gradient_12">
      <stop offset="0%" stop-color="#C14752" />
      <stop offset="100%" stop-color="#C14752" stop-opacity="0" />
    </linearGradient>
    <linearGradient gradientUnits="userSpaceOnUse" x1="125.43799" y1="80.02317" x2="63.67953" y2="-40.216946" id="gradient_13">
      <stop offset="0%" stop-color="#C14752" />
      <stop offset="100%" stop-color="#C14752" stop-opacity="0" />
    </linearGradient>
    <linearGradient gradientUnits="userSpaceOnUse" x1="24.718248" y1="75.029724" x2="101.331085" y2="-4.950516" id="gradient_14">
      <stop offset="0%" stop-color="#64B581" />
      <stop offset="100%" stop-color="#8DE691" />
    </linearGradient>
    <linearGradient gradientUnits="userSpaceOnUse" x1="28.594015" y1="113.67928" x2="39.45621" y2="7.3079605" id="gradient_15">
      <stop offset="43.8968%" stop-color="#A58F78" />
      <stop offset="100%" stop-color="#CFBDAA" />
    </linearGradient>
    <linearGradient gradientUnits="userSpaceOnUse" x1="86.36521" y1="61.436455" x2="69.31026" y2="-11.4389715" id="gradient_16">
      <stop offset="0%" stop-color="#A58F78" />
      <stop offset="100%" stop-color="#F5E6D5" />
    </linearGradient>
    <linearGradient gradientUnits="userSpaceOnUse" x1="55.708008" y1="114.05414" x2="47.312084" y2="7.4578915" id="gradient_17">
      <stop offset="43.8968%" stop-color="#A58F78" />
      <stop offset="100%" stop-color="#CFBDAA" />
    </linearGradient>
    <linearGradient gradientUnits="userSpaceOnUse" x1="-34.205692" y1="59.89435" x2="-15.46803" y2="-12.564913" id="gradient_18">
      <stop offset="0%" stop-color="#A58F78" />
      <stop offset="100%" stop-color="#F5E6D5" />
    </linearGradient>
    <linearGradient gradientUnits="userSpaceOnUse" x1="55.707985" y1="114.05416" x2="47.313843" y2="7.457893" id="gradient_19">
      <stop offset="43.8968%" stop-color="#A58F78" />
      <stop offset="100%" stop-color="#CFBDAA" />
    </linearGradient>
    <linearGradient gradientUnits="userSpaceOnUse" x1="-34.206524" y1="59.894363" x2="-15.46877" y2="-12.564872" id="gradient_20">
      <stop offset="0%" stop-color="#A58F78" />
      <stop offset="100%" stop-color="#F5E6D5" />
    </linearGradient>
    <linearGradient gradientUnits="userSpaceOnUse" x1="137.72653" y1="72.42097" x2="7.697773" y2="62.450966" id="gradient_21">
      <stop offset="0%" stop-color="#64B581" />
      <stop offset="100%" stop-color="#8DE691" />
    </linearGradient>
    <linearGradient gradientUnits="userSpaceOnUse" x1="51.04128" y1="31.564562" x2="177.35165" y2="64.01058" id="gradient_22">
      <stop offset="0%" stop-color="#64B581" />
      <stop offset="100%" stop-color="#8DE691" />
    </linearGradient>
    <linearGradient gradientUnits="userSpaceOnUse" x1="30.04553" y1="86.74535" x2="122.35002" y2="-5.3800607" id="gradient_23">
      <stop offset="0%" stop-color="#64B581" />
      <stop offset="100%" stop-color="#8DE691" />
    </linearGradient>
    <linearGradient gradientUnits="userSpaceOnUse" x1="159.63054" y1="0" x2="159.63054" y2="319.26205" id="gradient_24">
      <stop offset="0%" stop-color="#64626F" />
      <stop offset="100%" stop-color="#64626F" stop-opacity="0.34117648" />
    </linearGradient>
    <linearGradient gradientUnits="userSpaceOnUse" x1="123.3348" y1="58.527332" x2="113.771904" y2="-20.50732" id="gradient_25">
      <stop offset="0%" stop-color="#D55561" />
      <stop offset="100%" stop-color="#EB8B75" />
    </linearGradient>
    <linearGradient gradientUnits="userSpaceOnUse" x1="32.64745" y1="53.04623" x2="-26.115324" y2="19.732525" id="gradient_26">
      <stop offset="0%" stop-color="#D55561" />
      <stop offset="100%" stop-color="#EB8B75" />
    </linearGradient>
    <linearGradient gradientUnits="userSpaceOnUse" x1="52.840004" y1="93.35539" x2="-11.288582" y2="72.13608" id="gradient_27">
      <stop offset="0%" stop-color="#D55561" />
      <stop offset="100%" stop-color="#EB8B75" />
    </linearGradient>
  </defs>
  <g id="DrawKit-Vector-Illustration-Food-&amp;-Culture-(10)-2">
    <g id="Grupo-de-Máscaras">
      <g id="Group">
        <path d="M1387.52 218.891L1406.25 220.585L1356.03 958.593C1356.03 958.593 1344.19 973.698 1333.82 973.8C1323.44 973.902 1314.52 959 1314.52 959L1387.52 218.891L1387.52 218.891Z" id="Forma" fill="url(#gradient_1)" fill-rule="evenodd" stroke="none" />
        <path d="M1512.05 141.716L1530.77 143.41L1476.87 959C1476.87 959 1469.79 970.6 1459.15 970.6C1448.52 970.6 1434.33 959 1434.33 959L1512.05 141.716L1512.05 141.716Z" id="Forma" fill="url(#gradient_2)" fill-rule="evenodd" stroke="none" />
        <path d="M1239.14 467.854C1239.14 693.192 1056.47 875.865 831.131 875.865C605.792 875.865 423.119 693.192 423.119 467.854C423.119 242.515 605.792 59.8419 831.131 59.8419C1056.47 59.8419 1239.14 242.515 1239.14 467.854L1239.14 467.854Z" id="Forma" fill="#323138" fill-rule="evenodd" stroke="none" />
        <path d="M831.131 865.873C1050.95 865.873 1229.15 687.673 1229.15 467.854C1229.15 248.034 1050.95 69.8346 831.131 69.8346C611.311 69.8346 433.112 248.034 433.112 467.854C433.112 687.673 611.311 865.873 831.131 865.873L831.131 865.873ZM831.131 875.865C1056.47 875.865 1239.14 693.192 1239.14 467.854C1239.14 242.515 1056.47 59.8419 831.131 59.8419C605.792 59.8419 423.119 242.515 423.119 467.854C423.119 693.192 605.792 875.865 831.131 875.865L831.131 875.865Z" id="Forma" fill="url(#gradient_3)" fill-rule="evenodd" stroke="none" />
        <path d="M497.659 467.854C497.659 278.266 651.351 124.574 840.939 124.574C1030.53 124.574 1184.22 278.266 1184.22 467.854C1184.22 657.442 1030.53 811.133 840.939 811.133C651.351 811.133 497.659 657.442 497.659 467.854Z" id="Círculo" fill="url(#gradient_4)" fill-rule="evenodd" stroke="none" />
        <path d="M654.588 672.841C654.588 678.799 659.418 683.629 665.377 683.629C671.335 683.629 676.165 678.799 676.165 672.841C676.165 666.882 671.335 662.052 665.377 662.052C659.418 662.052 654.588 666.882 654.588 672.841Z" id="Círculo" fill="#D55561" fill-rule="evenodd" stroke="none" />
        <path d="M964.516 708.149C964.516 714.107 969.346 718.938 975.305 718.938C981.263 718.938 986.093 714.107 986.093 708.149C986.093 702.191 981.263 697.36 975.305 697.36C969.346 697.36 964.516 702.191 964.516 708.149Z" id="Círculo" fill="#D55561" fill-rule="evenodd" stroke="none" />
        <path d="M978.251 636.551C978.251 639.801 980.886 642.436 984.136 642.436C987.386 642.436 990.02 639.801 990.02 636.551C990.02 633.301 987.386 630.666 984.136 630.666C980.886 630.666 978.251 633.301 978.251 636.551Z" id="Círculo" fill="#D55561" fill-rule="evenodd" stroke="none" />
        <path d="M1023.37 238.347C1023.37 241.597 1026 244.232 1029.25 244.232C1032.5 244.232 1035.14 241.597 1035.14 238.347C1035.14 235.097 1032.5 232.462 1029.25 232.462C1026 232.462 1023.37 235.097 1023.37 238.347Z" id="Círculo" fill="#D55561" fill-rule="evenodd" stroke="none" />
        <path d="M1119.49 391.351C1119.49 394.602 1122.12 397.236 1125.37 397.236C1128.62 397.236 1131.26 394.602 1131.26 391.351C1131.26 388.101 1128.62 385.467 1125.37 385.467C1122.12 385.467 1119.49 388.101 1119.49 391.351Z" id="Círculo" fill="#EEAB75" fill-rule="evenodd" stroke="none" />
        <path d="M538.854 369.774C538.854 373.024 541.488 375.659 544.738 375.659C547.988 375.659 550.623 373.024 550.623 369.774C550.623 366.524 547.988 363.889 544.738 363.889C541.488 363.889 538.854 366.524 538.854 369.774Z" id="Círculo" fill="#EEAB75" fill-rule="evenodd" stroke="none" />
        <path d="M797.783 216.769C797.783 220.02 800.418 222.654 803.668 222.654C806.918 222.654 809.553 220.02 809.553 216.769C809.553 213.519 806.918 210.885 803.668 210.885C800.418 210.885 797.783 213.519 797.783 216.769Z" id="Círculo" fill="#D55561" fill-rule="evenodd" stroke="none" />
        <path d="M573.97 234.424L607.026 246.835C657.737 265.876 683.411 322.42 664.371 373.131L651.959 406.188L618.904 393.776C568.192 374.735 542.518 318.19 561.559 267.479L573.97 234.424L573.97 234.424Z" id="Forma" fill="url(#gradient_5)" fill-rule="evenodd" stroke="none" />
        <path d="M648.027 404.711L573.37 236.022L573.97 234.424L607.025 246.835C657.737 265.876 683.411 322.42 664.37 373.131L651.959 406.187L648.027 404.711L648.027 404.711Z" id="Forma" fill="#529D6A" fill-opacity="0.5" fill-rule="evenodd" stroke="none" />
        <path d="M713.241 671.005L737.645 664.43C775.083 654.343 813.611 676.516 823.697 713.954L830.273 738.358L805.869 744.933C768.43 755.021 729.904 732.847 719.816 695.409L713.241 671.005L713.241 671.005Z" id="Forma" fill="url(#gradient_6)" fill-rule="evenodd" stroke="none" />
        <path d="M827.37 739.14L713.56 672.186L713.241 671.005L737.645 664.43C775.083 654.343 813.611 676.516 823.697 713.954L830.273 738.357L827.37 739.14L827.37 739.14Z" id="Forma" fill="#529D6A" fill-opacity="0.5" fill-rule="evenodd" stroke="none" />
        <path d="M538.854 558.087C538.854 511.503 576.618 473.738 623.202 473.738C669.786 473.738 707.551 511.503 707.551 558.087C707.551 604.671 669.786 642.435 623.202 642.435C576.618 642.435 538.854 604.671 538.854 558.087Z" id="Círculo" fill="url(#gradient_7)" fill-rule="evenodd" stroke="none" />
        <path d="M702.277 587.511C705.687 578.349 707.551 568.436 707.551 558.087C707.551 546.994 705.409 536.402 701.518 526.702L544.886 526.702C540.994 536.402 538.854 546.994 538.854 558.087C538.854 568.436 540.718 578.349 544.128 587.511L702.277 587.511L702.277 587.511Z" id="Forma" fill="#E3E798" fill-rule="evenodd" stroke="none" />
        <path d="M623.201 636.44C666.475 636.44 701.554 601.36 701.554 558.087C701.554 514.814 666.475 479.734 623.201 479.734C579.928 479.734 544.848 514.814 544.848 558.087C544.848 601.36 579.928 636.44 623.201 636.44L623.201 636.44ZM623.201 642.436C669.786 642.436 707.55 604.672 707.55 558.087C707.55 511.503 669.786 473.738 623.201 473.738C576.617 473.738 538.854 511.503 538.854 558.087C538.854 604.672 576.617 642.436 623.201 642.436L623.201 642.436Z" id="Forma" fill="#F3F4CB" fill-rule="evenodd" stroke="none" />
        <path d="M953.952 234.323C933.107 234.07 916.098 239.566 907.167 254.343C902.969 261.285 903.023 267.724 906.269 273.841C909.552 280.036 916.143 285.961 925.138 291.647C943.108 303.011 970.273 313.151 998.299 322.536C1007.31 325.554 1016.41 328.492 1025.31 331.368C1044.04 337.42 1061.9 343.188 1076.22 348.808C1086.77 352.951 1095.49 357.044 1101.23 361.153C1104.1 363.207 1106.29 365.309 1107.59 367.478C1108.91 369.678 1109.31 371.972 1108.53 374.297C1107.64 376.997 1105.55 378.812 1102.77 379.947C1100 381.074 1096.48 381.561 1092.54 381.604C1084.65 381.691 1074.79 379.998 1065.19 377.727C1055.57 375.452 1046.17 372.582 1039.17 370.282C1035.67 369.132 1032.77 368.124 1030.75 367.402C1029.73 367.042 1028.94 366.753 1028.4 366.554C1028.13 366.455 1027.92 366.378 1027.78 366.326L1027.62 366.266L1027.57 366.246C1027.57 366.246 1027.57 366.246 1027.88 365.397C1028.2 364.549 1028.2 364.549 1028.2 364.549L1028.21 364.55L1028.26 364.568L1028.41 364.626C1028.55 364.677 1028.75 364.754 1029.03 364.852C1029.56 365.049 1030.35 365.336 1031.36 365.694C1033.37 366.411 1036.25 367.415 1039.74 368.559C1046.72 370.85 1056.06 373.704 1065.61 375.962C1075.17 378.223 1084.85 379.875 1092.52 379.791C1096.36 379.749 1099.61 379.272 1102.08 378.268C1104.53 377.271 1106.12 375.785 1106.81 373.724C1107.39 371.991 1107.13 370.245 1106.03 368.409C1104.92 366.544 1102.95 364.615 1100.17 362.628C1094.63 358.657 1086.08 354.63 1075.56 350.495C1061.3 344.897 1043.52 339.158 1024.83 333.117C1015.92 330.238 1006.79 327.29 997.727 324.255C969.72 314.876 942.356 304.676 924.167 293.18C915.082 287.436 908.173 281.303 904.664 274.69C901.119 268 901.092 260.884 905.607 253.405C915.037 237.808 932.881 232.254 953.979 232.511C975.096 232.767 999.722 238.838 1023.13 246.782C1046.55 254.731 1068.82 264.579 1085.22 272.437C1093.42 276.366 1100.17 279.8 1104.85 282.251C1107.2 283.477 1109.03 284.458 1110.28 285.131C1110.9 285.469 1111.38 285.73 1111.71 285.906C1111.86 285.995 1111.99 286.062 1112.07 286.107L1112.16 286.159L1112.19 286.175C1112.2 286.176 1112.2 286.176 1111.75 286.968C1111.31 287.761 1111.31 287.76 1111.31 287.76L1111.28 287.745L1111.19 287.694C1111.11 287.649 1110.99 287.583 1110.83 287.496C1110.51 287.321 1110.04 287.063 1109.42 286.727C1108.18 286.056 1106.35 285.08 1104.02 283.858C1099.34 281.415 1092.62 277.991 1084.43 274.073C1068.07 266.233 1045.88 256.417 1022.55 248.499C999.205 240.577 974.788 234.577 953.952 234.323L953.952 234.323ZM1112.54 287.409C1112.31 287.847 1111.75 288.004 1111.31 287.761L1111.75 286.968L1112.2 286.176C1112.63 286.42 1112.79 286.972 1112.54 287.409L1112.54 287.409ZM1027.03 365.077C1027.21 364.61 1027.74 364.373 1028.2 364.549L1027.88 365.397L1027.57 366.246C1027.1 366.069 1026.86 365.546 1027.03 365.077L1027.03 365.077Z" id="Forma" fill="#BE424D" fill-rule="evenodd" stroke="none" />
        <path d="M1175.5 316.744L855.037 295.256L780.729 291.464C715.892 288.156 660.903 338.574 658.586 403.454C656.121 472.474 714 528.42 782.897 523.613L872.794 517.342C879.394 516.881 880.328 507.565 873.954 505.8L773.639 478.029C757.635 473.598 754.032 452.527 767.656 443.032L798.151 421.778L832.104 439.753C882.024 466.183 943.044 459.343 985.867 422.516L1019.81 393.335L1176.83 324.25C1180.58 322.598 1179.6 317.019 1175.5 316.744L1175.5 316.744Z" id="Forma" fill="url(#gradient_8)" fill-rule="evenodd" stroke="none" />
        <path d="M729.495 321.737L711.841 334.487C711.841 334.487 718.564 377.754 734.398 399.22C748.593 418.462 779.515 434.528 779.515 434.528L788.343 428.644C788.343 428.644 757.164 407.435 745.187 387.45C731.626 364.818 729.495 321.737 729.495 321.737L729.495 321.737Z" id="Forma" fill="url(#gradient_9)" fill-rule="evenodd" stroke="none" />
        <path d="M772.223 439.623L772.651 439.432L751.101 439.432C741.424 439.432 731.896 437.046 723.361 432.484L687.406 413.267C685.548 412.274 683.645 414.508 684.92 416.185L692.921 426.7C706.555 444.62 725.045 458.252 746.194 465.979L764.804 472.78C755.527 462.037 759.252 445.388 772.223 439.623L772.223 439.623Z" id="Forma" fill="url(#gradient_10)" fill-rule="evenodd" stroke="none" />
        <path d="M787.014 336.916L795.484 323.606L798.856 325.752L790.387 339.063C779.06 356.862 778.3 379.411 788.402 397.933L800.886 420.821L797.377 422.735L784.893 399.847C774.094 380.048 774.906 355.943 787.014 336.916L787.014 336.916Z" id="Forma" fill="#D15A63" fill-rule="evenodd" stroke="none" />
        <path d="M1010 317.813C1010 306.98 1018.78 298.197 1029.62 298.197C1040.45 298.197 1049.23 306.98 1049.23 317.813C1049.23 328.647 1040.45 337.429 1029.62 337.429C1018.78 337.429 1010 328.647 1010 317.813Z" id="Círculo" fill="#4B1E20" fill-rule="evenodd" stroke="none" />
        <path d="M877.064 231.174C870.654 234.465 866.162 239.531 864.195 246.856C862.099 254.659 864.184 262.394 869.593 270.1C875.015 277.822 883.729 285.443 894.736 292.921C916.741 307.872 947.632 322.087 978.814 335.314C989.168 339.705 999.55 343.988 1009.65 348.151C1029.92 356.511 1049.03 364.389 1064.34 371.693C1075.81 377.162 1085.22 382.343 1091.44 387.201C1094.55 389.629 1096.92 392.018 1098.33 394.373C1099.76 396.745 1100.25 399.148 1099.47 401.498C1098.57 404.198 1096.48 406.013 1093.7 407.148C1090.94 408.275 1087.42 408.762 1083.47 408.805C1075.58 408.892 1065.72 407.199 1056.12 404.927C1046.51 402.653 1037.1 399.783 1030.11 397.483C1026.61 396.333 1023.7 395.325 1021.68 394.604C1020.67 394.243 1019.87 393.954 1019.33 393.755C1019.06 393.656 1018.85 393.579 1018.71 393.527L1018.55 393.468L1018.5 393.447C1018.5 393.447 1018.5 393.447 1018.82 392.598C1019.13 391.75 1019.13 391.75 1019.13 391.75L1019.14 391.751L1019.19 391.769L1019.34 391.827C1019.43 391.861 1019.55 391.906 1019.71 391.961C1019.78 391.989 1019.87 392.02 1019.96 392.052C1020.49 392.25 1021.28 392.537 1022.29 392.895C1024.3 393.612 1027.19 394.616 1030.68 395.76C1037.65 398.051 1047 400.904 1056.54 403.163C1066.1 405.425 1075.78 407.075 1083.45 406.992C1087.29 406.95 1090.55 406.473 1093.01 405.469C1095.46 404.472 1097.06 402.986 1097.74 400.925C1098.32 399.216 1098.02 397.368 1096.77 395.307C1095.53 393.226 1093.36 390.997 1090.33 388.631C1084.27 383.9 1075 378.789 1063.56 373.329C1048.28 366.047 1029.26 358.202 1009.02 349.854C998.915 345.687 988.506 341.394 978.106 336.984C946.934 323.759 915.88 309.484 893.72 294.421C882.641 286.891 873.71 279.124 868.106 271.141C862.494 263.142 860.167 254.857 862.443 246.386C864.556 238.523 869.412 233.064 876.239 229.561C883.031 226.075 891.753 224.535 901.645 224.407C921.42 224.15 946.182 229.539 970.345 236.799C994.526 244.065 1018.19 253.23 1035.8 260.575C1044.6 264.248 1051.9 267.467 1057 269.769C1059.55 270.919 1061.54 271.841 1062.91 272.475C1063.59 272.792 1064.11 273.037 1064.46 273.203C1064.64 273.287 1064.77 273.349 1064.86 273.392L1064.99 273.456C1064.99 273.456 1064.99 273.457 1064.6 274.275C1064.21 275.093 1064.21 275.093 1064.21 275.092L1064.08 275.03C1064.03 275.006 1063.96 274.975 1063.89 274.937C1063.83 274.91 1063.76 274.878 1063.69 274.843C1063.34 274.678 1062.82 274.434 1062.14 274.119C1060.79 273.488 1058.79 272.569 1056.25 271.421C1051.17 269.126 1043.89 265.913 1035.1 262.248C1017.52 254.916 993.919 245.777 969.819 238.536C945.701 231.289 921.157 225.967 901.663 226.22C891.925 226.347 883.511 227.867 877.064 231.174L877.064 231.174ZM1065.42 274.666C1065.2 275.118 1064.67 275.308 1064.22 275.093L1064.6 274.275L1064.99 273.457C1065.45 273.673 1065.64 274.214 1065.42 274.666L1065.42 274.666ZM1017.96 392.279C1018.15 391.81 1018.67 391.574 1019.13 391.75L1018.82 392.598L1018.5 393.447C1018.03 393.27 1017.79 392.747 1017.96 392.279L1017.96 392.279Z" id="Forma" fill="#BE424D" fill-rule="evenodd" stroke="none" />
        <path d="M908.798 328.19C902.388 331.481 897.899 336.547 895.932 343.873C893.828 351.675 895.914 359.411 901.327 367.116C906.749 374.838 915.462 382.46 926.469 389.937C948.475 404.888 979.366 419.104 1010.55 432.33C1020.9 436.722 1031.28 441.004 1041.38 445.167C1061.66 453.527 1080.76 461.405 1096.08 468.709C1107.55 474.178 1116.96 479.359 1123.18 484.217C1126.29 486.645 1128.65 489.034 1130.07 491.389C1131.49 493.762 1131.98 496.164 1131.2 498.514C1130.3 501.214 1128.22 503.029 1125.43 504.164C1122.67 505.291 1119.15 505.778 1115.21 505.822C1107.32 505.908 1097.45 504.215 1087.85 501.944C1078.24 499.669 1068.84 496.799 1061.84 494.499C1058.34 493.349 1055.44 492.341 1053.42 491.62C1052.4 491.259 1051.6 490.97 1051.07 490.771C1050.8 490.672 1050.59 490.595 1050.44 490.543L1050.29 490.484L1050.23 490.463C1050.23 490.463 1050.23 490.463 1050.55 489.614C1050.87 488.766 1050.87 488.766 1050.87 488.766L1050.88 488.767L1050.92 488.785L1051.08 488.843C1051.17 488.877 1051.28 488.922 1051.44 488.977C1051.51 489.005 1051.6 489.036 1051.69 489.069C1052.23 489.266 1053.02 489.553 1054.02 489.911C1056.04 490.628 1058.92 491.632 1062.41 492.776C1069.38 495.067 1078.73 497.921 1088.28 500.179C1097.83 502.441 1107.52 504.092 1115.19 504.008C1119.02 503.966 1122.28 503.49 1124.74 502.485C1127.19 501.488 1128.79 500.002 1129.48 497.941C1130.05 496.232 1129.75 494.384 1128.51 492.323C1127.27 490.242 1125.09 488.013 1122.06 485.647C1116 480.916 1106.74 475.805 1095.3 470.345C1080.02 463.063 1061 455.218 1040.76 446.87C1030.65 442.703 1020.24 438.41 1009.84 434C978.668 420.775 947.613 406.5 925.454 391.437C914.374 383.907 905.443 376.14 899.84 368.157C894.227 360.158 891.897 351.873 894.173 343.402C896.286 335.539 901.145 330.08 907.973 326.577C914.764 323.091 923.486 321.552 933.378 321.423C953.153 321.166 977.915 326.555 1002.08 333.815C1026.26 341.081 1049.92 350.246 1067.53 357.591C1076.34 361.264 1083.64 364.484 1088.73 366.785C1091.28 367.935 1093.27 368.857 1094.64 369.491C1095.32 369.808 1095.84 370.053 1096.19 370.219C1096.37 370.303 1096.5 370.365 1096.59 370.408L1096.73 370.472C1096.73 370.472 1096.73 370.473 1096.34 371.291C1095.95 372.109 1095.95 372.109 1095.95 372.108L1095.81 372.046C1095.77 372.022 1095.69 371.991 1095.62 371.953C1095.56 371.926 1095.49 371.894 1095.42 371.859C1095.07 371.694 1094.55 371.451 1093.87 371.135C1092.52 370.504 1090.53 369.585 1087.99 368.438C1082.9 366.142 1075.62 362.929 1066.83 359.264C1049.25 351.932 1025.65 342.793 1001.55 335.552C977.435 328.305 952.89 322.983 933.397 323.236C923.659 323.363 915.245 324.883 908.798 328.19L908.798 328.19ZM1097.16 371.682C1096.94 372.134 1096.4 372.325 1095.95 372.109L1096.34 371.291L1096.73 370.473C1097.18 370.689 1097.37 371.23 1097.16 371.682L1097.16 371.682ZM1049.7 489.295C1049.88 488.826 1050.41 488.59 1050.87 488.766L1050.55 489.614L1050.23 490.463C1049.76 490.286 1049.53 489.763 1049.7 489.295L1049.7 489.295Z" id="Forma" fill="#BE424D" fill-rule="evenodd" stroke="none" />
        <path d="M1190.83 447.168L870.363 425.68L796.056 421.888C731.219 418.58 676.23 468.998 673.913 533.878C671.448 602.898 729.327 658.845 798.225 654.038L888.116 647.766C894.717 647.306 895.651 637.989 889.277 636.224L788.966 608.454C772.961 604.023 769.36 582.951 782.983 573.456L813.478 552.203L847.431 570.178C897.355 596.607 958.367 589.768 1001.2 552.941L1035.14 523.76L1192.15 454.674C1195.9 453.022 1194.92 447.443 1190.83 447.168L1190.83 447.168Z" id="Forma" fill="url(#gradient_11)" fill-rule="evenodd" stroke="none" />
        <path d="M958.485 394.808C937.641 394.555 920.631 400.05 911.7 414.828C907.502 421.77 907.557 428.209 910.802 434.326C914.085 440.521 920.676 446.446 929.671 452.132C947.641 463.495 974.806 473.636 1002.83 483.021C1011.84 486.039 1020.95 488.977 1029.84 491.853C1048.57 497.904 1066.44 503.673 1080.75 509.292C1091.31 513.436 1100.02 517.529 1105.76 521.638C1108.63 523.692 1110.83 525.793 1112.12 527.963C1113.44 530.163 1113.84 532.457 1113.07 534.782C1112.17 537.482 1110.08 539.297 1107.3 540.432C1104.54 541.559 1101.02 542.046 1097.07 542.089C1089.19 542.175 1079.32 540.483 1069.72 538.211C1060.11 535.937 1050.71 533.067 1043.71 530.767C1040.21 529.617 1037.3 528.609 1035.28 527.887C1034.27 527.527 1033.47 527.238 1032.93 527.039C1032.66 526.939 1032.45 526.862 1032.31 526.811L1032.15 526.751L1032.1 526.731C1032.1 526.731 1032.1 526.731 1032.42 525.882C1032.73 525.034 1032.73 525.034 1032.73 525.034L1032.74 525.034L1032.79 525.053L1032.94 525.111C1033.08 525.162 1033.29 525.238 1033.56 525.336C1034.09 525.534 1034.88 525.821 1035.89 526.179C1037.9 526.896 1040.79 527.9 1044.28 529.044C1051.25 531.335 1060.6 534.188 1070.14 536.447C1079.7 538.708 1089.38 540.359 1097.06 540.276C1100.89 540.234 1104.15 539.757 1106.61 538.753C1109.06 537.755 1110.66 536.27 1111.34 534.209C1111.93 532.476 1111.66 530.729 1110.57 528.894C1109.45 527.029 1107.48 525.1 1104.71 523.113C1099.16 519.142 1090.62 515.115 1080.09 510.98C1065.83 505.382 1048.06 499.643 1029.36 493.602C1020.45 490.722 1011.32 487.775 1002.26 484.74C974.253 475.361 946.889 465.161 928.701 453.665C919.616 447.921 912.707 441.788 909.198 435.175C905.652 428.485 905.625 421.369 910.141 413.89C919.57 398.293 937.414 392.739 958.513 392.996C979.63 393.252 1004.26 399.322 1027.67 407.267C1051.09 415.216 1073.35 425.064 1089.76 432.922C1097.95 436.851 1104.7 440.285 1109.39 442.736C1111.73 443.962 1113.57 444.943 1114.82 445.616C1115.43 445.954 1115.91 446.215 1116.24 446.391C1116.4 446.48 1116.52 446.547 1116.6 446.592L1116.69 446.644L1116.72 446.66C1116.73 446.661 1116.73 446.661 1116.29 447.453C1115.84 448.246 1115.84 448.245 1115.84 448.245L1115.81 448.229L1115.72 448.179C1115.64 448.134 1115.52 448.068 1115.36 447.981C1115.04 447.806 1114.57 447.548 1113.96 447.212C1112.71 446.541 1110.88 445.565 1108.55 444.343C1103.87 441.9 1097.16 438.476 1088.97 434.557C1072.6 426.718 1050.42 416.902 1027.09 408.984C1003.74 401.061 979.321 395.062 958.485 394.808L958.485 394.808ZM1117.08 447.894C1116.84 448.332 1116.29 448.489 1115.84 448.246L1116.29 447.453L1116.73 446.661C1117.17 446.905 1117.32 447.457 1117.08 447.894L1117.08 447.894ZM1031.57 525.562C1031.75 525.094 1032.27 524.858 1032.73 525.034L1032.42 525.882L1032.1 526.731C1031.63 526.554 1031.39 526.031 1031.57 525.562L1031.57 525.562Z" id="Forma" fill="#BE424D" fill-rule="evenodd" stroke="none" />
        <path d="M744.821 452.161L727.166 464.911C727.166 464.911 733.89 508.178 749.724 529.644C763.919 548.886 794.841 564.952 794.841 564.952L803.668 559.068C803.668 559.068 772.49 537.859 760.513 517.874C746.951 495.242 744.821 452.161 744.821 452.161L744.821 452.161Z" id="Forma" fill="url(#gradient_12)" fill-rule="evenodd" stroke="none" />
        <path d="M787.547 570.047L787.974 569.857L766.424 569.857C756.747 569.857 747.219 567.47 738.685 562.909L702.73 543.691C700.872 542.698 698.968 544.933 700.244 546.609L708.244 557.124C721.879 575.044 740.368 588.676 761.518 596.404L780.128 603.204C770.851 592.461 774.575 575.812 787.547 570.047L787.547 570.047Z" id="Forma" fill="url(#gradient_13)" fill-rule="evenodd" stroke="none" />
        <path d="M802.339 467.34L810.809 454.03L814.181 456.176L805.711 469.487C794.385 487.286 793.624 509.835 803.727 528.357L816.211 551.245L812.703 553.159L800.218 530.271C789.419 510.472 790.231 486.367 802.339 467.34L802.339 467.34Z" id="Forma" fill="#D15A63" fill-rule="evenodd" stroke="none" />
        <path d="M1025.33 448.237C1025.33 437.404 1034.11 428.621 1044.95 428.621C1055.78 428.621 1064.56 437.404 1064.56 448.237C1064.56 459.071 1055.78 467.853 1044.95 467.853C1034.11 467.853 1025.33 459.071 1025.33 448.237Z" id="Círculo" fill="#4B1E20" fill-rule="evenodd" stroke="none" />
        <path d="M683.36 381.079C660.396 367.676 633.048 363.944 607.333 370.704C581.617 377.464 559.641 394.163 546.237 417.128C532.833 440.092 529.101 467.439 535.862 493.155C542.622 518.871 559.321 540.847 582.284 554.251L632.823 467.665L683.36 381.079L683.36 381.079Z" id="Forma" fill="#DBE272" fill-rule="evenodd" stroke="none" />
        <path d="M532.66 471.989L632.031 468.835L581.72 381.411C567.176 390.029 554.911 402.266 546.237 417.128C536.469 433.863 531.838 452.926 532.66 471.989L532.66 471.989Z" id="Forma" fill="#E3E798" fill-rule="evenodd" stroke="none" />
        <path d="M532.962 493.917C526 467.432 529.843 439.267 543.648 415.616C557.452 391.965 580.086 374.767 606.571 367.805C633.055 360.843 661.221 364.687 684.872 378.491L681.849 383.669C659.571 370.666 633.041 367.046 608.095 373.604C583.148 380.162 561.829 396.362 548.826 418.638C535.823 440.916 532.203 467.446 538.761 492.392C545.319 517.339 561.519 538.659 583.795 551.661L580.773 556.84C557.122 543.036 539.924 520.402 532.962 493.917L532.962 493.917Z" id="Forma" fill="#F3F4CB" fill-rule="evenodd" stroke="none" />
        <path d="M938.691 643.426L937.377 673.712C935.373 720.174 896.086 756.214 849.621 754.208L819.335 752.901L820.643 722.614C822.648 676.153 861.939 640.113 908.399 642.119L938.691 643.426L938.691 643.426Z" id="Forma" fill="url(#gradient_14)" fill-rule="evenodd" stroke="none" />
        <path d="M819.491 749.298L937.222 643.363L938.691 643.426L937.377 673.712C935.373 720.174 896.086 756.214 849.621 754.208L819.335 752.901L819.491 749.298L819.491 749.298Z" id="Forma" fill="#529D6A" fill-opacity="0.5" fill-rule="evenodd" stroke="none" />
        <path d="M1014.66 575.844C1015.34 571.445 1019.12 568.197 1023.58 568.197L1055.07 568.197C1080.22 568.197 1102.58 587.878 1093.93 611.488C1091.22 618.886 1087.24 626.287 1081.48 632.832C1074.42 640.833 1065.36 646.448 1055.87 650.383C1028.55 661.724 1005.71 634.071 1010.2 604.833L1014.66 575.844L1014.66 575.844Z" id="Forma" fill="url(#gradient_15)" fill-rule="evenodd" stroke="none" />
        <path d="M1020.68 575.844C1021.36 571.445 1025.14 568.197 1029.59 568.197L1061.08 568.197C1086.23 568.197 1108.59 587.878 1099.94 611.488C1097.23 618.886 1093.26 626.287 1087.49 632.832C1080.44 640.833 1071.37 646.448 1061.88 650.383C1034.57 661.724 1011.72 634.071 1016.21 604.833L1020.68 575.844L1020.68 575.844Z" id="Forma" fill="#F5E6D5" fill-rule="evenodd" stroke="none" />
        <path d="M1041.87 622.158C1044.47 633.221 1060.33 632.876 1062.45 621.711L1062.56 621.148C1062.71 620.332 1063.5 619.796 1064.31 619.951C1065.13 620.105 1065.67 620.893 1065.51 621.708L1065.4 622.271C1062.68 636.626 1042.28 637.07 1038.95 622.846L1035.26 607.19C1031.57 591.482 1046.6 577.846 1061.88 583.041L1078.64 588.741C1091.51 593.117 1090.61 611.609 1077.38 614.719L1070.52 616.333C1069.7 616.522 1068.89 616.021 1068.7 615.213C1068.51 614.405 1069.02 613.595 1069.83 613.406L1076.69 611.792C1086.98 609.373 1087.68 594.991 1077.67 591.587L1060.91 585.887C1047.87 581.452 1035.04 593.093 1038.19 606.502L1041.87 622.158L1041.87 622.158Z" id="Forma" fill="url(#gradient_16)" fill-rule="evenodd" stroke="none" />
        <path d="M914.184 181.324C913.613 176.91 909.895 173.575 905.452 173.471L873.963 172.74C848.827 172.155 826.017 191.31 834.117 215.117C836.654 222.575 840.449 230.066 846.063 236.743C852.927 244.906 861.864 250.731 871.252 254.884C898.299 266.857 921.782 239.743 917.965 210.408L914.184 181.324L914.184 181.324Z" id="Forma" fill="url(#gradient_17)" fill-rule="evenodd" stroke="none" />
        <path d="M908.173 181.185C907.592 176.77 903.884 173.435 899.441 173.332L867.952 172.6C842.816 172.015 820.005 191.171 828.104 214.977C830.642 222.436 834.437 229.927 840.051 236.604C846.915 244.767 855.852 250.591 865.238 254.745C892.287 266.718 915.771 239.604 911.954 210.269L908.173 181.185L908.173 181.185Z" id="Forma" fill="#F5E6D5" fill-rule="evenodd" stroke="none" />
        <path d="M885.904 226.992C883.048 237.992 867.2 237.279 865.342 226.068L865.249 225.502C865.112 224.683 864.339 224.129 863.52 224.265C862.701 224.4 862.147 225.174 862.283 225.993L862.376 226.559C864.764 240.974 885.142 241.891 888.814 227.749L892.858 212.182C896.911 196.565 882.205 182.583 866.816 187.421L849.924 192.73C836.957 196.806 837.424 215.313 850.579 218.73L857.407 220.503C858.211 220.712 859.031 220.229 859.241 219.426C859.449 218.623 858.967 217.802 858.164 217.594L851.335 215.82C841.103 213.164 840.74 198.768 850.825 195.598L867.716 190.289C880.854 186.159 893.411 198.094 889.948 211.426L885.904 226.992L885.904 226.992Z" id="Forma" fill="url(#gradient_18)" fill-rule="evenodd" stroke="none" />
        <path d="M759.216 210.748C758.642 206.334 754.932 202.999 750.482 202.895L718.999 202.164C693.86 201.579 671.051 220.735 679.15 244.541C681.687 251.999 685.482 259.49 691.097 266.167C697.96 274.33 706.898 280.155 716.283 284.308C743.334 296.281 766.818 269.167 763.001 239.832L759.216 210.748L759.216 210.748Z" id="Forma" fill="url(#gradient_19)" fill-rule="evenodd" stroke="none" />
        <path d="M753.204 210.609C752.63 206.194 748.921 202.859 744.471 202.756L712.988 202.024C687.849 201.439 665.038 220.595 673.138 244.401C675.676 251.86 679.47 259.351 685.084 266.027C691.948 274.19 700.885 280.014 710.271 284.169C737.323 296.141 760.807 269.028 756.99 239.693L753.204 210.609L753.204 210.609Z" id="Forma" fill="#F5E6D5" fill-rule="evenodd" stroke="none" />
        <path d="M730.94 256.417C728.083 267.417 712.232 266.703 710.375 255.492L710.281 254.926C710.146 254.107 709.372 253.553 708.553 253.689C707.734 253.824 707.18 254.599 707.315 255.417L707.41 255.983C709.797 270.398 730.177 271.314 733.85 257.173L737.892 241.606C741.947 225.989 727.242 212.007 711.849 216.845L694.956 222.154C681.991 226.23 682.457 244.737 695.613 248.154L702.441 249.927C703.244 250.136 704.065 249.654 704.273 248.85C704.482 248.047 704 247.226 703.196 247.018L696.368 245.244C686.136 242.587 685.773 228.192 695.858 225.022L712.75 219.713C725.891 215.583 738.444 227.518 734.982 240.85L730.94 256.417L730.94 256.417Z" id="Forma" fill="url(#gradient_20)" fill-rule="evenodd" stroke="none" />
        <path d="M268.725 889.031C290.398 910.356 319.655 922.197 350.06 921.953C380.464 921.699 409.524 909.386 430.848 887.716C452.17 866.038 464.011 836.781 463.762 806.376C463.515 775.972 451.199 746.912 429.525 725.588L349.125 807.311L268.725 889.031L268.725 889.031Z" id="Forma" fill="#DBE272" fill-rule="evenodd" stroke="none" />
        <path d="M461.346 830.738L350.329 806.241L381.458 917.301C400.006 911.843 417.045 901.742 430.845 887.716C446.385 871.919 456.887 852.096 461.346 830.738L461.346 830.738Z" id="Forma" fill="#E3E798" fill-rule="evenodd" stroke="none" />
        <path d="M268.725 889.031C290.398 910.356 319.655 922.197 350.06 921.953C380.464 921.699 409.524 909.386 430.848 887.716C452.17 866.038 464.011 836.781 463.762 806.376C463.515 775.972 451.199 746.912 429.525 725.588" id="Forma" fill="none" fill-rule="evenodd" stroke="#F3F4CB" stroke-width="7.42177" />
        <path d="M1233.86 100.184L1262.4 78.7463C1306.18 45.8592 1368.34 54.692 1401.22 98.4751L1422.66 127.015L1394.12 148.452C1350.34 181.34 1288.19 172.507 1255.3 128.723L1233.86 100.184L1233.86 100.184Z" id="Forma" fill="url(#gradient_21)" fill-rule="evenodd" stroke="none" />
        <path d="M1419.27 129.565L1234.9 101.564L1233.86 100.184L1262.4 78.7473C1306.18 45.8596 1368.34 54.6923 1401.22 98.4751L1422.66 127.015L1419.27 129.565L1419.27 129.565Z" id="Forma" fill="#529D6A" fill-opacity="0.5" fill-rule="evenodd" stroke="none" />
        <path d="M181.251 456.046L149.417 472.189C100.579 496.957 40.9107 477.443 16.1439 428.605L0 396.771L31.8344 380.627C80.6719 355.86 140.34 375.374 165.108 424.211L181.251 456.046L181.251 456.046Z" id="Forma" fill="url(#gradient_22)" fill-rule="evenodd" stroke="none" />
        <path d="M3.78671 394.85L180.47 454.506L181.251 456.046L149.417 472.189C100.579 496.957 40.9107 477.443 16.1439 428.605L0 396.771L3.78671 394.85L3.78671 394.85Z" id="Forma" fill="#529D6A" fill-opacity="0.5" fill-rule="evenodd" stroke="none" />
        <path d="M155.816 452.229L153.477 487.846C149.886 542.487 102.681 583.872 48.0399 580.282L12.4228 577.943L14.7628 542.325C18.3528 487.684 65.5586 446.299 120.2 449.889L155.816 452.229L155.816 452.229Z" id="Forma" fill="url(#gradient_23)" fill-rule="evenodd" stroke="none" />
        <path d="M12.6993 573.706L154.092 452.115L155.815 452.229L153.474 487.845C149.885 542.486 102.68 583.872 48.0381 580.282L12.421 577.942L12.6993 573.706L12.6993 573.706Z" id="Forma" fill="#529D6A" fill-opacity="0.5" fill-rule="evenodd" stroke="none" />
        <path d="M392.398 159.632C392.398 247.793 320.929 319.262 232.766 319.262C144.605 319.262 73.1358 247.793 73.1358 159.632C73.1358 71.4692 144.605 0 232.766 0C320.929 0 392.398 71.4692 392.398 159.632L392.398 159.632Z" id="Forma" fill="#323138" fill-rule="evenodd" stroke="none" />
        <path d="M232.767 309.347C315.453 309.347 382.484 242.317 382.484 159.631C382.484 76.9456 315.453 9.91496 232.767 9.91496C150.081 9.91496 83.0509 76.9456 83.0509 159.631C83.0509 242.317 150.081 309.347 232.767 309.347L232.767 309.347ZM232.766 319.262C320.929 319.262 392.398 247.793 392.398 159.632C392.398 71.4692 320.929 0 232.766 0C144.605 0 73.1358 71.4692 73.1358 159.632C73.1358 247.793 144.605 319.262 232.766 319.262L232.766 319.262Z" id="Forma" fill="url(#gradient_24)" fill-rule="evenodd" stroke="none" />
        <path d="M130.642 159.631C130.642 103.23 176.364 57.507 232.766 57.507C289.168 57.507 334.891 103.23 334.891 159.631C334.891 216.033 289.168 261.756 232.766 261.756C176.364 261.756 130.642 216.033 130.642 159.631Z" id="Círculo" fill="#C24048" fill-rule="evenodd" stroke="none" />
        <path d="M180.218 171.529C180.218 169.887 181.549 168.555 183.192 168.555C184.835 168.555 186.167 169.887 186.167 171.529C186.167 173.172 184.835 174.504 183.192 174.504C181.549 174.504 180.218 173.172 180.218 171.529Z" id="Círculo" fill="#B4373F" fill-rule="evenodd" stroke="none" />
        <path d="M211.945 121.954C211.945 120.311 213.276 118.98 214.919 118.98C216.562 118.98 217.894 120.311 217.894 121.954C217.894 123.597 216.562 124.929 214.919 124.929C213.276 124.929 211.945 123.597 211.945 121.954Z" id="Círculo" fill="#B4373F" fill-rule="evenodd" stroke="none" />
        <path d="M257.554 165.58C257.554 163.938 258.886 162.606 260.528 162.606C262.171 162.606 263.503 163.938 263.503 165.58C263.503 167.223 262.171 168.555 260.528 168.555C258.886 168.555 257.554 167.223 257.554 165.58Z" id="Círculo" fill="#B4373F" fill-rule="evenodd" stroke="none" />
        <path d="M257.554 221.105C257.554 219.462 258.886 218.13 260.528 218.13C262.171 218.13 263.503 219.462 263.503 221.105C263.503 222.747 262.171 224.079 260.528 224.079C258.886 224.079 257.554 222.747 257.554 221.105Z" id="Círculo" fill="#B4373F" fill-rule="evenodd" stroke="none" />
        <path d="M295.229 141.784C295.229 140.141 296.561 138.81 298.204 138.81C299.847 138.81 301.178 140.141 301.178 141.784C301.178 143.427 299.847 144.759 298.204 144.759C296.561 144.759 295.229 143.427 295.229 141.784Z" id="Círculo" fill="#B4373F" fill-rule="evenodd" stroke="none" />
        <path d="M180.218 96.1757C180.218 94.5329 181.549 93.2012 183.192 93.2012C184.835 93.2012 186.167 94.5329 186.167 96.1757C186.167 97.8185 184.835 99.1502 183.192 99.1502C181.549 99.1502 180.218 97.8185 180.218 96.1757Z" id="Círculo" fill="#B4373F" fill-rule="evenodd" stroke="none" />
        <g id="Agrupar" transform="translate(175.19006 584.1172)">
          <path d="M0 19.8303L13.8806 0" id="Linha" fill="none" fill-rule="evenodd" stroke="#323138" stroke-width="4.37413" stroke-linecap="round" />
        </g>
        <path d="M25.4449 703.351L99.3723 669.923C108.706 665.703 116.502 658.695 121.691 649.863L148.135 604.852C154.858 593.409 169.595 589.6 181.021 596.351C193.276 603.593 196.564 619.851 188.089 631.286L161.091 667.712C148.536 684.652 129.753 695.895 108.891 698.959L27.6552 710.889C23.1062 711.556 21.2556 705.246 25.4449 703.351L25.4449 703.351Z" id="Forma" fill="url(#gradient_25)" fill-rule="evenodd" stroke="none" />
        <g id="Agrupar" transform="translate(271.05334 562.3264)">
          <path d="M6.53635 19.4703L0 0" id="Linha" fill="none" fill-rule="evenodd" stroke="#323138" stroke-width="3.71138" stroke-linecap="round" />
        </g>
        <path d="M269.952 734.108L284.403 666.801C286.227 658.304 285.375 649.45 281.963 641.456L264.572 600.718C260.151 590.362 264.98 578.383 275.347 573.989C286.466 569.275 299.221 575.225 302.753 586.775L314.005 623.563C319.238 640.671 317.444 659.159 309.019 674.941L276.211 736.399C274.374 739.841 269.133 737.922 269.952 734.108L269.952 734.108Z" id="Forma" fill="url(#gradient_26)" fill-rule="evenodd" stroke="none" />
        <g id="Agrupar" transform="translate(98.300026 798.4827)">
          <path d="M18.8229 0L0 8.21649" id="Linha" fill="none" fill-rule="evenodd" stroke="#323138" stroke-width="3.71138" stroke-linecap="round" />
        </g>
        <path d="M224.934 690.625L184.722 746.5C179.645 753.554 172.508 758.862 164.292 761.695L122.416 776.134C111.77 779.804 106.128 791.422 109.826 802.058C113.791 813.466 126.761 818.931 137.695 813.801L172.523 797.461C188.72 789.862 201.224 776.127 207.273 759.29L230.832 693.728C232.151 690.057 227.212 687.457 224.934 690.625L224.934 690.625Z" id="Forma" fill="url(#gradient_27)" fill-rule="evenodd" stroke="none" />
      </g>
    </g>
  </g>
</svg>