<?xml version="1.0" encoding="utf-8"?>
<svg width="1060px" height="1169px" viewBox="0 0 1060 1169" version="1.1" xmlns:xlink="http://www.w3.org/1999/xlink" xmlns="http://www.w3.org/2000/svg">
  <defs>
    <path d="M0 0L1060 0L1060 1169L0 1169L0 0Z" id="path_1" />
    <clipPath id="mask_1">
      <use xlink:href="#path_1" />
    </clipPath>
  </defs>
  <g id="drawkit-daily-life-vector-illustration-03">
    <path d="M0 0L1060 0L1060 1169L0 1169L0 0Z" id="Fundo" fill="#FFFFFF" fill-opacity="0" fill-rule="evenodd" stroke="none" />
    <path d="M747.7 445.89C747.7 436.037 755.687 428.05 765.54 428.05C775.393 428.05 783.38 436.037 783.38 445.89C783.38 455.743 775.393 463.73 765.54 463.73C755.687 463.73 747.7 455.743 747.7 445.89Z" id="Círculo" fill="#41465A" fill-rule="evenodd" stroke="none" />
    <path d="M694.7 439.89C694.7 430.037 702.687 422.05 712.54 422.05C722.393 422.05 730.38 430.037 730.38 439.89C730.38 449.743 722.393 457.73 712.54 457.73C702.687 457.73 694.7 449.743 694.7 439.89Z" id="Círculo" fill="#41465A" fill-rule="evenodd" stroke="none" />
    <g id="PICTURE" transform="translate(752.25 142.85)">
      <path d="M6.21002 6.20999L146.42 6.20999L146.42 146.42L6.21002 146.42L6.21002 6.20999Z" id="Retângulo" fill="#E4F7FF" fill-rule="evenodd" stroke="none" />
      <path d="M0 0L140.21 0L140.21 140.21L0 140.21L0 0Z" id="Retângulo" fill="#FFFFFF" fill-rule="evenodd" stroke="#F1B104" stroke-width="3" stroke-linejoin="round" />
      <path d="M22.33 22.33L117.88 22.33L117.88 117.88L22.33 117.88L22.33 22.33Z" id="Retângulo" fill="#FFE6AA" fill-rule="evenodd" stroke="none" />
      <path d="M70.61 48.74C70.61 48.74 73.23 40.05 67.12 37.4" id="Forma" fill="none" stroke="#948900" stroke-width="3" />
      <path d="M83.56 62.4C84.1137 65.671 85.3432 68.7907 87.17 71.56C92.8724 80.0934 91.3969 91.527 83.7149 98.3331C76.0329 105.139 64.5049 105.227 56.7205 98.5377C48.9362 91.8488 47.2875 80.439 52.86 71.8201C54.7435 68.9666 56.0325 65.7628 56.65 62.4L56.77 61.69C56.92 60.83 57.0099 59.97 57.09 59.1C57.6387 53.0211 62.7363 48.366 68.84 48.37L71.36 48.37C77.4813 48.3726 82.5861 53.052 83.12 59.15C83.19 60.02 83.28 60.88 83.43 61.74L83.56 62.4Z" id="Forma" fill="#FFFFFF" stroke="none" />
      <path d="M71.75 48.28C71.75 48.28 71.11 40.28 82.57 36.71C82.55 36.71 84.14 51.04 71.75 48.28L71.75 48.28Z" id="Forma" fill="#B0A81F" stroke="none" />
    </g>
    <path d="M689.1 778.29L655.73 1090.12C655.622 1091.11 655.939 1092.09 656.601 1092.83C657.263 1093.57 658.208 1093.99 659.2 1093.99L659.2 1093.99C660.873 1093.99 662.31 1092.8 662.63 1091.16L716.88 778.29L689.1 778.29ZM817.06 778.29L850.43 1084.11C850.54 1085.09 850.23 1086.07 849.577 1086.82C848.924 1087.56 847.988 1087.99 847 1088L847 1088C845.324 1088 843.881 1086.82 843.56 1085.17L789.28 778.29L817.06 778.29ZM662.08 768.71L662.08 767.21C662.08 764.982 662.868 763.079 664.444 761.504C666.019 759.928 667.922 759.14 670.15 759.14L833.36 759.14C835.589 759.14 837.491 759.928 839.066 761.504C840.642 763.079 841.43 764.982 841.43 767.21L841.43 770.21C841.43 772.438 840.642 774.341 839.066 775.916C837.491 777.492 835.589 778.28 833.36 778.28L670.15 778.28C667.922 778.28 666.019 777.492 664.444 775.916C662.868 774.341 662.08 772.438 662.08 770.21L662.08 768.71Z" id="CHAIR" fill="#FFFFFF" stroke="#F1B104" stroke-width="3" />
    <g id="GIRL" transform="translate(512.32 379.26447)">
      <g id="LEGS" transform="translate(163.30426 206.01233)">
        <path d="M175.266 168.513C174.266 175.363 129.856 171.663 33.5657 172.803C33.3817 172.842 33.194 172.862 33.0058 172.863C15.0057 172.863 0.45575 145.543 0.0057373 74.4532C-0.444275 3.36322 25.6257 -0.366821 34.7357 0.0231934C61.6357 1.14319 63.5257 40.0232 63.5257 75.0232C63.5177 91.5409 61.5632 107.988 57.7028 124.035C76.0857 131.023 78.7057 121.433 110.766 129.023C145.496 137.313 176.036 163.063 175.266 168.513L175.266 168.513Z" id="LEFT_LEG" fill="#3A193F" stroke="none" />
        <g id="RIGHT_LEG" transform="translate(48.679993 6.1035156E-05)">
          <path d="M167.376 161.633C171.166 163.383 177.006 161.353 180.376 161.303C188.376 161.173 190.006 165.723 190.006 165.723L171.096 207.853C171.096 207.853 163.906 205.793 165.316 193.313C166.786 180.313 167.426 174.673 160.316 172.553C153.206 170.433 161.116 158.723 167.376 161.633L167.376 161.633Z" id="SHOES" fill="#F1B104" stroke="none" />
          <path d="M160.276 172.373C139.956 173.473 98.5757 172.023 33.5757 172.803C33.3883 172.843 33.1973 172.863 33.0057 172.863C4.10571 172.863 0.45575 145.543 0.0057373 74.4531C-0.444275 3.3631 25.6157 -0.366882 34.7258 0.0231323C61.6258 1.14313 63.5157 40.0231 63.5157 75.0231C63.5098 92.2005 61.3887 109.329 57.2 126.006C73.0258 130.833 78.7158 121.433 110.766 129.023C145.476 137.253 165.616 156.263 168.036 163.643C168.766 165.843 170.056 171.853 160.276 172.373L160.276 172.373Z" id="LEG" fill="#FFB3A4" stroke="none" />
          <path d="M63.5358 75.0632C63.5307 89.5904 62.014 104.098 59.01 118.333C39.7889 120.074 20.4546 120.178 1.21594 118.643C0.425781 106.333 0.135742 91.6431 0.0257568 74.4531C-0.414246 3.36316 25.6357 -0.356873 34.7458 0.0231323C61.6957 1.14313 63.5358 40.0331 63.5358 75.0632L63.5358 75.0632Z" id="SHADOW" fill="#3A193F" stroke="none" />
        </g>
      </g>
      <g id="LEFT_HAND" transform="translate(0 83.31662)">
        <path d="M148.57 84.8289C175.05 66.2989 204.2 35.8289 206.91 23.9689C210.19 9.60892 201.15 -6.6011 190.12 2.7789C174.03 16.4689 149.03 41.0789 137.72 55.6489C121.14 39.3389 85.3701 6.5289 74.47 13.3489C69.85 16.2389 119.47 77.9089 128.87 85.8389C134.29 90.4189 143.77 88.1789 148.57 84.8289L148.57 84.8289Z" id="HAND" fill="#FFB3A4" stroke="none" />
        <g id="PACK" transform="translate(0 17.118927)">
          <path d="M28.5308 87.0012L92.7243 35.148L100.221 44.4285L36.0273 96.2817L28.5308 87.0012Z" id="Retângulo" fill="#FFE6AA" fill-rule="evenodd" stroke="#F1B104" stroke-width="3" />
          <path d="M100.22 44.43L95.98 47.86L95.98 47.86C93.3968 49.5068 89.9878 48.9432 88.0722 46.5526C86.1566 44.1619 86.3496 40.7121 88.5199 38.55L92.7599 35.12L100.22 44.43Z" id="Forma" fill="#F1B104" stroke="none" />
          <path d="M0 51.85L28.53 87L92.72 35.15L64.19 0L0 51.85L0 51.85Z" id="Polígono" fill="#FFFFFF" fill-rule="evenodd" stroke="#F1B104" stroke-width="3" />
          <path d="M91.87 45.4C91.87 44.7041 92.4341 44.14 93.13 44.14C93.8259 44.14 94.39 44.7041 94.39 45.4C94.39 46.0958 93.8259 46.66 93.13 46.66C92.4341 46.66 91.87 46.0958 91.87 45.4Z" id="Círculo" fill="#FFE6AA" fill-rule="evenodd" stroke="none" />
          <path d="M100.22 52.28C100.22 51.5841 100.784 51.02 101.48 51.02C102.176 51.02 102.74 51.5841 102.74 52.28C102.74 52.9758 102.176 53.54 101.48 53.54C100.784 53.54 100.22 52.9758 100.22 52.28Z" id="Círculo" fill="#FFE6AA" fill-rule="evenodd" stroke="none" />
          <path d="M105.51 69.28C105.51 68.5841 106.074 68.02 106.77 68.02C107.466 68.02 108.03 68.5841 108.03 69.28C108.03 69.9758 107.466 70.54 106.77 70.54C106.074 70.54 105.51 69.9758 105.51 69.28Z" id="Círculo" fill="#FFE6AA" fill-rule="evenodd" stroke="none" />
          <path d="M99.21 73.7C99.21 73.0041 99.7741 72.44 100.47 72.44C101.166 72.44 101.73 73.0041 101.73 73.7C101.73 74.3959 101.166 74.96 100.47 74.96C99.7741 74.96 99.21 74.3959 99.21 73.7Z" id="Círculo" fill="#FFE6AA" fill-rule="evenodd" stroke="none" />
          <path d="M106.77 83.74C106.77 83.0441 107.334 82.48 108.03 82.48C108.726 82.48 109.29 83.0441 109.29 83.74C109.29 84.4359 108.726 85 108.03 85C107.334 85 106.77 84.4359 106.77 83.74Z" id="Círculo" fill="#FFE6AA" fill-rule="evenodd" stroke="none" />
          <path d="M109.97 78.13C109.97 77.4341 110.534 76.87 111.23 76.87C111.926 76.87 112.49 77.4341 112.49 78.13C112.49 78.8259 111.926 79.39 111.23 79.39C110.534 79.39 109.97 78.8259 109.97 78.13Z" id="Círculo" fill="#FFE6AA" fill-rule="evenodd" stroke="none" />
          <path d="M96.68 64.53C96.68 63.8341 97.2441 63.27 97.94 63.27C98.6359 63.27 99.2 63.8341 99.2 64.53C99.2 65.2258 98.6359 65.79 97.94 65.79C97.2441 65.79 96.68 65.2258 96.68 64.53Z" id="Círculo" fill="#FFE6AA" fill-rule="evenodd" stroke="none" />
          <path d="M95.42 54.81C95.42 54.1141 95.9841 53.55 96.68 53.55C97.3759 53.55 97.94 54.1141 97.94 54.81C97.94 55.5059 97.3759 56.07 96.68 56.07C95.9841 56.07 95.42 55.5059 95.42 54.81Z" id="Círculo" fill="#FFE6AA" fill-rule="evenodd" stroke="none" />
          <path d="M100.22 56.3399C100.22 55.8429 100.623 55.4399 101.12 55.4399C101.617 55.4399 102.02 55.8429 102.02 56.3399C102.02 56.837 101.617 57.2399 101.12 57.2399C100.623 57.2399 100.22 56.837 100.22 56.3399Z" id="Círculo" fill="#FFE6AA" fill-rule="evenodd" stroke="none" />
          <path d="M97.64 51.0199C97.64 50.5229 98.0429 50.1199 98.54 50.1199C99.037 50.1199 99.44 50.5229 99.44 51.0199C99.44 51.517 99.037 51.9199 98.54 51.9199C98.0429 51.9199 97.64 51.517 97.64 51.0199Z" id="Círculo" fill="#FFE6AA" fill-rule="evenodd" stroke="none" />
          <path d="M103.31 61.2199C103.31 60.7229 103.713 60.3199 104.21 60.3199C104.707 60.3199 105.11 60.7229 105.11 61.2199C105.11 61.717 104.707 62.1199 104.21 62.1199C103.713 62.1199 103.31 61.717 103.31 61.2199Z" id="Círculo" fill="#FFE6AA" fill-rule="evenodd" stroke="none" />
          <path d="M104.85 77.66C104.85 77.1629 105.253 76.7599 105.75 76.7599C106.247 76.7599 106.65 77.1629 106.65 77.66C106.65 78.157 106.247 78.56 105.75 78.56C105.253 78.56 104.85 78.157 104.85 77.66Z" id="Círculo" fill="#FFE6AA" fill-rule="evenodd" stroke="none" />
          <path d="M114.44 93.29C114.44 92.7929 114.843 92.39 115.34 92.39C115.837 92.39 116.24 92.7929 116.24 93.29C116.24 93.787 115.837 94.19 115.34 94.19C114.843 94.19 114.44 93.787 114.44 93.29Z" id="Círculo" fill="#FFE6AA" fill-rule="evenodd" stroke="none" />
          <path d="M105.87 88.2699C105.87 87.7729 106.273 87.3699 106.77 87.3699C107.267 87.3699 107.67 87.7729 107.67 88.2699C107.67 88.767 107.267 89.1699 106.77 89.1699C106.273 89.1699 105.87 88.767 105.87 88.2699Z" id="Círculo" fill="#FFE6AA" fill-rule="evenodd" stroke="none" />
          <path d="M112.63 84.6499C112.63 84.1529 113.033 83.7499 113.53 83.7499C114.027 83.7499 114.43 84.1529 114.43 84.6499C114.43 85.147 114.027 85.5499 113.53 85.5499C113.033 85.5499 112.63 85.147 112.63 84.6499Z" id="Círculo" fill="#FFE6AA" fill-rule="evenodd" stroke="none" />
          <path d="M101.12 88.2699C101.12 87.7729 101.523 87.3699 102.02 87.3699C102.517 87.3699 102.92 87.7729 102.92 88.2699C102.92 88.767 102.517 89.1699 102.02 89.1699C101.523 89.1699 101.12 88.767 101.12 88.2699Z" id="Círculo" fill="#FFE6AA" fill-rule="evenodd" stroke="none" />
          <path d="M101.12 66.62C101.12 66.1229 101.523 65.72 102.02 65.72C102.517 65.72 102.92 66.1229 102.92 66.62C102.92 67.117 102.517 67.52 102.02 67.52C101.523 67.52 101.12 67.117 101.12 66.62Z" id="Círculo" fill="#FFE6AA" fill-rule="evenodd" stroke="none" />
          <path d="M111.23 70.93C111.23 70.4329 111.633 70.03 112.13 70.03C112.627 70.03 113.03 70.4329 113.03 70.93C113.03 71.427 112.627 71.83 112.13 71.83C111.633 71.83 111.23 71.427 111.23 70.93Z" id="Círculo" fill="#FFE6AA" fill-rule="evenodd" stroke="none" />
          <path d="M97.64 77.23C97.64 76.7329 98.0429 76.33 98.54 76.33C99.037 76.33 99.44 76.7329 99.44 77.23C99.44 77.727 99.037 78.13 98.54 78.13C98.0429 78.13 97.64 77.727 97.64 77.23Z" id="Círculo" fill="#FFE6AA" fill-rule="evenodd" stroke="none" />
          <path d="M93.8 42.17C93.8 41.8386 94.0686 41.57 94.4 41.57C94.7314 41.57 95 41.8386 95 42.17C95 42.5014 94.7314 42.77 94.4 42.77C94.0686 42.77 93.8 42.5014 93.8 42.17Z" id="Círculo" fill="#FFE6AA" fill-rule="evenodd" stroke="none" />
          <path d="M97.34 60.31C97.34 59.9787 97.6087 59.71 97.94 59.71C98.2714 59.71 98.54 59.9787 98.54 60.31C98.54 60.6414 98.2714 60.91 97.94 60.91C97.6087 60.91 97.34 60.6414 97.34 60.31Z" id="Círculo" fill="#FFE6AA" fill-rule="evenodd" stroke="none" />
          <path d="M97.34 60.31C97.34 59.9787 97.6087 59.71 97.94 59.71C98.2714 59.71 98.54 59.9787 98.54 60.31C98.54 60.6414 98.2714 60.91 97.94 60.91C97.6087 60.91 97.34 60.6414 97.34 60.31Z" id="Círculo" fill="#FFE6AA" fill-rule="evenodd" stroke="none" />
          <path d="M99.62 69.28C99.62 68.9486 99.8886 68.68 100.22 68.68C100.551 68.68 100.82 68.9486 100.82 69.28C100.82 69.6114 100.551 69.88 100.22 69.88C99.8886 69.88 99.62 69.6114 99.62 69.28Z" id="Círculo" fill="#FFE6AA" fill-rule="evenodd" stroke="none" />
          <path d="M105.75 63.26C105.75 62.9287 106.019 62.66 106.35 62.66C106.681 62.66 106.95 62.9287 106.95 63.26C106.95 63.5914 106.681 63.86 106.35 63.86C106.019 63.86 105.75 63.5914 105.75 63.26Z" id="Círculo" fill="#FFE6AA" fill-rule="evenodd" stroke="none" />
          <path d="M109.22 66.62C109.22 66.2887 109.489 66.02 109.82 66.02C110.151 66.02 110.42 66.2887 110.42 66.62C110.42 66.9514 110.151 67.22 109.82 67.22C109.489 67.22 109.22 66.9514 109.22 66.62Z" id="Círculo" fill="#FFE6AA" fill-rule="evenodd" stroke="none" />
          <path d="M104.51 83.74C104.51 83.4086 104.779 83.14 105.11 83.14C105.441 83.14 105.71 83.4086 105.71 83.74C105.71 84.0714 105.441 84.34 105.11 84.34C104.779 84.34 104.51 84.0714 104.51 83.74Z" id="Círculo" fill="#FFE6AA" fill-rule="evenodd" stroke="none" />
          <path d="M99.87 81.68C99.87 81.3486 100.139 81.08 100.47 81.08C100.801 81.08 101.07 81.3486 101.07 81.68C101.07 82.0114 100.801 82.28 100.47 82.28C100.139 82.28 99.87 82.0114 99.87 81.68Z" id="Círculo" fill="#FFE6AA" fill-rule="evenodd" stroke="none" />
          <path d="M111.23 86.77C111.23 86.4386 111.499 86.17 111.83 86.17C112.161 86.17 112.43 86.4386 112.43 86.77C112.43 87.1014 112.161 87.37 111.83 87.37C111.499 87.37 111.23 87.1014 111.23 86.77Z" id="Círculo" fill="#FFE6AA" fill-rule="evenodd" stroke="none" />
          <path d="M109.37 91.19C109.37 90.8587 109.639 90.59 109.97 90.59C110.301 90.59 110.57 90.8587 110.57 91.19C110.57 91.5214 110.301 91.79 109.97 91.79C109.639 91.79 109.37 91.5214 109.37 91.19Z" id="Círculo" fill="#FFE6AA" fill-rule="evenodd" stroke="none" />
          <path d="M113.53 81.68C113.53 81.3486 113.799 81.08 114.13 81.08C114.461 81.08 114.73 81.3486 114.73 81.68C114.73 82.0114 114.461 82.28 114.13 82.28C113.799 82.28 113.53 82.0114 113.53 81.68Z" id="Círculo" fill="#FFE6AA" fill-rule="evenodd" stroke="none" />
          <path d="M98.6 85.55C98.6 85.2186 98.8687 84.95 99.2 84.95C99.5314 84.95 99.8 85.2186 99.8 85.55C99.8 85.8814 99.5314 86.15 99.2 86.15C98.8687 86.15 98.6 85.8814 98.6 85.55Z" id="Círculo" fill="#FFE6AA" fill-rule="evenodd" stroke="none" />
          <path d="M104.51 91.79C104.51 91.4586 104.779 91.19 105.11 91.19C105.441 91.19 105.71 91.4586 105.71 91.79C105.71 92.1214 105.441 92.39 105.11 92.39C104.779 92.39 104.51 92.1214 104.51 91.79Z" id="Círculo" fill="#FFE6AA" fill-rule="evenodd" stroke="none" />
          <path d="M108.61 72.7C108.61 72.3687 108.879 72.1 109.21 72.1C109.541 72.1 109.81 72.3687 109.81 72.7C109.81 73.0314 109.541 73.3 109.21 73.3C108.879 73.3 108.61 73.0314 108.61 72.7Z" id="Círculo" fill="#FFE6AA" fill-rule="evenodd" stroke="none" />
          <path d="M103.01 81.68C103.01 81.3486 103.279 81.08 103.61 81.08C103.941 81.08 104.21 81.3486 104.21 81.68C104.21 82.0114 103.941 82.28 103.61 82.28C103.279 82.28 103.01 82.0114 103.01 81.68Z" id="Círculo" fill="#FFE6AA" fill-rule="evenodd" stroke="none" />
          <path d="M103.01 74.97C103.01 74.6386 103.279 74.37 103.61 74.37C103.941 74.37 104.21 74.6386 104.21 74.97C104.21 75.3014 103.941 75.57 103.61 75.57C103.279 75.57 103.01 75.3014 103.01 74.97Z" id="Círculo" fill="#FFE6AA" fill-rule="evenodd" stroke="none" />
        </g>
        <path d="M76.82 30.1489C78.36 30.2489 83.7 27.8589 84.63 23.2389C85.93 16.7589 91.36 17.7589 85.25 14.2989C79.61 11.1089 63.57 11.0389 59.94 12.1789C56.31 13.3189 51.5 17.7889 51.06 18.6689C50.62 19.5489 47.83 26.0989 47.83 26.0989C47.83 26.0989 53.89 30.4489 57.45 27.0989C60.4128 24.271 64.4655 22.8824 68.54 23.2989C70.449 23.5314 72.1977 24.4826 73.4301 25.9589L76.82 30.1489Z" id="ARM" fill="#FFB3A4" stroke="none" />
      </g>
      <path d="M243.76 80.9255C251.61 83.1955 261.15 87.1355 267.54 133.406C273.93 179.675 305.54 306.496 306.09 309.685C306.64 312.875 179.76 322.026 138.28 294.906C138.28 294.906 175.61 114.066 188.4 89.5155C191.76 83.0655 202.34 80.3555 212 79.5655C221.66 78.7755 231.96 77.5055 243.76 80.9255L243.76 80.9255Z" id="DRESS" fill="#D6EAF2" stroke="none" />
      <g id="HEAD" transform="translate(194.09253 0)">
        <g id="NECK" transform="translate(5.6674194 58.59552)">
          <path d="M35.46 0C35.46 0 32.66 11.88 44 22.33C44 22.33 17.53 35.54 0 23.43C0 23.43 9.52002 12.89 8.48999 0L35.46 0Z" id="Forma" fill="#FFB3A4" stroke="none" />
          <path d="M37.16 12.9C29.16 18.75 16.47 24.84 3.38 18.75C6 14.47 9.09998 7.65002 8.48999 3.05176e-05L35.49 3.05176e-05C34.7505 4.37039 35.332 8.86203 37.16 12.9L37.16 12.9Z" id="Forma" fill="#3A193F" stroke="none" />
        </g>
        <path d="M53.5875 59.8155C53.5875 59.8155 25.4474 87.4755 5.58746 65.4155C-11.3126 46.6055 13.1775 2.41553 38.3675 13.4155C59.2175 22.4755 53.5875 59.8155 53.5875 59.8155L53.5875 59.8155Z" id="FACE" fill="#FFB3A4" stroke="none" />
        <g id="HAIR" transform="translate(1.7417603 0)">
          <path d="M30.3257 16.1855C30.3257 16.1855 30.6157 41.4756 51.9857 50.5756L51.2756 64.2656C51.2756 64.2656 71.7556 63.9756 74.1556 47.2656C77.8856 21.3256 65.5457 5.00555 48.8356 1.62555C32.1256 -1.75446 3.71564 -1.37445 0.235657 17.8055C-0.514343 21.9355 0.765686 36.0656 0.765686 36.0656C0.765686 36.0656 8.8457 11.6555 30.3257 16.1855L30.3257 16.1855Z" id="Forma" fill="#41465A" stroke="none" />
          <path d="M30.3257 14.9855C30.3257 14.9855 21.6457 39.6755 44.1757 48.7355" id="Forma" fill="none" stroke="#41465A" stroke-width="3" />
        </g>
        <path d="M52.4474 60.3055C52.4474 60.3055 63.2775 59.3055 62.2374 54.3055C61.1974 49.3055 53.1674 50.6055 53.1674 50.6055L52.4474 60.3055Z" id="EAR" fill="#FFB3A4" stroke="none" />
      </g>
      <g id="RIGHT_HAND" transform="translate(57.341736 90.78989)">
        <g id="BOWL" transform="translate(0 97.94565)">
          <path d="M119.718 21C116.932 36.7536 108 50.7546 94.8887 59.9217C81.7774 69.0889 65.561 72.6711 49.8082 69.88L49.8082 69.88C17.0197 64.0715 -4.85974 32.7922 0.928284 0L119.718 21Z" id="Forma" fill="#FFFFFF" fill-opacity="0.85" stroke="none" />
          <path d="M119.718 21C116.932 36.7536 108 50.7546 94.8887 59.9217C81.7774 69.0889 65.561 72.6711 49.8082 69.88L49.8082 69.88C17.0197 64.0715 -4.85974 32.7922 0.928284 0L119.718 21Z" id="Forma" fill="none" stroke="#F1B104" stroke-width="3" />
          <path d="M90.3983 57.48C69.6057 72.0151 41.4393 69.8291 23.1382 52.26C25.5283 49.26 41.7482 60.59 57.9583 51.93C86.6882 36.6 90.0983 55.23 90.3983 57.48L90.3983 57.48Z" id="Forma" fill="#FFE6AA" stroke="none" />
        </g>
        <path d="M199.798 13.3056C201.968 -1.26437 184.798 -5.10437 175.458 8.02563C166.758 20.2856 149.168 75.6457 149.168 75.6457C142.398 79.2057 71.0383 126.896 73.4283 134.526C74.7583 138.776 129.358 120.526 162.878 100.666C169.498 96.4156 194.128 51.2057 199.798 13.3056L199.798 13.3056ZM81.3383 134.946C78.5782 136.186 61.1683 143.506 57.3383 143.326C53.5082 143.146 45.9982 137.966 45.3383 137.216C44.6783 136.466 41.9683 132.276 41.9683 132.276C41.9683 132.276 44.8882 129.276 47.5583 132.276C50.7283 135.846 56.3983 134.976 59.3883 133.776C60.6383 133.276 62.5383 131.426 61.5783 129.846C60.6183 128.266 55.7583 130.036 54.2583 129.696C52.82 129.259 51.6945 128.134 51.2583 126.696L60.4083 123.696C61.8783 123.216 72.4083 123.646 78.4683 126.356C84.5283 129.066 87.7783 132.046 81.3383 134.946L81.3383 134.946Z" id="HAND-2" fill="#FFB3A4" stroke="none" />
      </g>
    </g>
    <g id="MAN" transform="translate(122.471375 131.9541)">
      <g id="LEGS-2" transform="translate(0 371.18597)">
        <g id="RIGHT_LEG-2" transform="translate(99.721664 12.239929)">
          <g id="SHOES-2" transform="translate(101.33696 545.41223)">
            <path d="M8.47 0.697754C8.47 10.8578 0.640015 14.5677 0.649994 32.5978L80.65 32.5978C80.65 32.5978 82.08 13.9978 61.75 13.4277C44.31 12.9377 31.13 2.2677 31.32 0.697754C31.51 -0.872192 8.47 0.697754 8.47 0.697754L8.47 0.697754Z" id="Forma" fill="#2B303F" stroke="none" />
            <path d="M0.0400085 30.7478L81.18 30.7478L81.18 32.5278C81.1794 33.8932 80.073 34.9985 78.7089 34.9978L2.47 34.9978C1.10587 34.9978 3.05176e-05 33.892 0 32.5278L0 30.7478L0.0400085 30.7478Z" id="Forma" fill="#C24048" stroke="none" />
            <path d="M36.92 18.2078C36.837 18.2175 36.7531 18.2175 36.67 18.2078C36.357 18.1454 36.0822 17.9597 35.9073 17.6927C35.7324 17.4257 35.6721 17.0996 35.74 16.7877C35.8 16.4877 37.29 9.5177 41.84 7.46777C43.97 6.46777 46.33 6.75781 48.84 8.21777C49.2116 8.43225 49.4406 8.82849 49.4407 9.25745C49.4408 9.6864 49.2121 10.0829 48.8407 10.2974C48.4692 10.512 48.0116 10.5122 47.64 10.2977C45.78 9.23767 44.19 9.02771 42.79 9.65771C39.93 10.9478 38.4 15.5977 38.05 17.2777C37.9279 17.808 37.464 18.1898 36.92 18.2076L36.92 18.2078Z" id="Forma" fill="#C24048" stroke="none" />
            <path d="M47.13 18.8278C47.0306 18.8429 46.9294 18.8429 46.83 18.8278C46.5204 18.7478 46.2555 18.5477 46.0941 18.2717C45.9326 17.9957 45.888 17.6667 45.97 17.3578C46.03 17.1478 47.4 12.0278 51.44 10.1478C53.68 9.14783 56.23 9.26782 59.02 10.6078C59.5554 10.9186 59.7665 11.5857 59.5074 12.1478C59.2484 12.7101 58.6041 12.9829 58.02 12.7778C55.91 11.7778 54.02 11.6178 52.5 12.3279C49.5 13.7379 48.35 17.9279 48.34 17.9679C48.1775 18.4951 47.6814 18.8477 47.13 18.8278L47.13 18.8278Z" id="Forma" fill="#C24048" stroke="none" />
          </g>
          <path d="M148.537 542.34C142.633 544.537 136.485 546.014 130.227 546.74C119.587 548.11 100.107 545.34 100.107 545.34C79.637 513.2 58.377 420.94 61.827 345.08C63.827 302.23 88.587 283.49 72.637 245.6C58.557 214.36 9.10698 128.51 0.976975 57.86C-2.02303 32.18 2.14697 13.38 9.91698 0C15.047 0.73999 20.137 1.40997 25.137 2C59.197 6.26001 89.427 8.09998 103.667 7.91998C120.257 39.73 138.477 97.98 151.117 213.22L154.497 262.87C156.137 287.62 148.447 410.79 148.537 542.34L148.537 542.34Z" id="PANT" fill="#41465A" stroke="none" />
        </g>
        <g id="LEFT_LEG-2">
          <g id="SHOES-3" transform="translate(18.17862 557.65216)">
            <path d="M7.83 0.697754C7.83 10.8578 0 14.5677 0 32.5978L80.63 32.5978C80.63 32.5978 82.06 13.9978 61.73 13.4277C44.29 12.9377 32.29 2.2677 32.48 0.697754C32.67 -0.872192 7.83 0.697754 7.83 0.697754L7.83 0.697754Z" id="Forma" fill="#2B303F" stroke="none" />
            <path d="M0 30.7478L81.14 30.7478L81.14 32.5278C81.1393 33.8932 80.033 34.9985 78.6688 34.9978L2.48001 34.9978C1.11588 34.9978 0.010025 33.892 0.0100098 32.5278L0.0100098 30.7478L0 30.7478Z" id="Forma" fill="#C24048" stroke="none" />
            <path d="M37.68 18.8278L37.44 18.8278C37.127 18.7653 36.8522 18.5796 36.6773 18.3126C36.5024 18.0455 36.4421 17.7195 36.51 17.4076C36.57 17.1177 38.06 10.1377 42.61 8.08777C44.74 7.08777 47.1 7.37781 49.61 8.83777C49.9816 9.05212 50.2105 9.44836 50.2107 9.87732C50.2108 10.3063 49.9821 10.7026 49.6107 10.9172C49.2392 11.1318 48.7816 11.1321 48.41 10.9176C46.55 9.85767 44.96 9.64771 43.56 10.2777C40.7 11.5677 39.17 16.2177 38.82 17.8977C38.6938 18.4297 38.2265 18.811 37.68 18.8279L37.68 18.8278Z" id="Forma" fill="#C24048" stroke="none" />
            <path d="M47.9 19.4277C47.8006 19.4429 47.6994 19.4429 47.6 19.4277C47.2904 19.3478 47.0255 19.1477 46.864 18.8717C46.7026 18.5957 46.6579 18.2667 46.74 17.9578C46.79 17.7478 48.17 12.6278 52.21 10.7578C54.45 9.75781 57 9.8678 59.79 11.2078C60.3254 11.5184 60.5365 12.1855 60.2774 12.7477C60.0183 13.3099 59.3741 13.5828 58.79 13.3777C56.68 12.3778 54.79 12.2178 53.27 12.9379C50.27 14.3379 49.12 18.5278 49.1 18.5679C48.9445 19.0957 48.4498 19.4502 47.9 19.4277L47.9 19.4277Z" id="Forma" fill="#C24048" stroke="none" />
          </g>
          <path d="M133.309 240.12C132.769 245.21 130.159 262.63 128.199 274.12C123.289 302.98 59.3286 546.27 57.8986 558.39C57.8986 558.39 52.0986 560.19 40.7786 560.53C32.1909 560.627 23.6036 560.293 15.0493 559.53C2.49863 524.34 -8.19137 431.53 8.79863 361.53C17.9086 323.96 43.7286 301.03 45.0086 268.15C39.0086 235.35 10.1686 133.31 18.2786 61.56C21.6686 31.62 32.2286 12.06 45.2786 0C70.3986 6.29999 98.7686 11 124.889 14.25C137.069 46.3199 147.529 107.86 133.309 240.12L133.309 240.12Z" id="PANT-2" fill="#41465A" stroke="none" />
        </g>
      </g>
      <g id="RIGHT_HAND-2" transform="translate(230.87701 142.73502)">
        <g id="HAND-3" transform="translate(4.5937195 1.2157898)">
          <path d="M103.058 205.995C11.8179 135.095 2.05789 57.2251 0.277893 37.5751C-2.27209 8.9151 12.5679 -13.8449 51.4179 9.9451C84.8779 30.4151 119.138 104.005 140.228 141.585C182.228 103.485 242.078 69.3851 248.468 65.1251C263.468 55.1251 266.698 64.8251 258.818 75.1951C249.728 87.1951 187.028 193.305 156.138 211.665C144.728 218.445 123.318 221.705 103.058 205.995L103.058 205.995Z" id="Forma" fill="#FFB3A4" stroke="none" />
          <path d="M119.058 102.255C100.588 133.555 66.2379 151.035 52.4379 157.065C9.20789 102.905 1.57791 52.0651 0.287903 37.5751C-2.26208 8.9151 12.5779 -13.8349 51.4279 9.93512C75.2379 24.5151 99.4579 65.9951 119.058 102.255L119.058 102.255Z" id="Forma" fill="#3A193F" stroke="none" />
          <path d="M272.868 38.2451C271.868 41.4251 267.628 45.9651 271.128 46.4351C272.938 46.6751 286.298 46.4351 287.198 51.4851C287.546 53.864 287.073 56.2906 285.858 58.3651C287.237 60.8524 287.062 63.9114 285.408 66.2251C286.748 69.1351 286.708 72.6451 285.288 73.9851C285.288 73.9851 287.288 81.3951 284.188 82.5951C274.508 86.3351 257.798 84.4451 252.188 82.8451C247.318 81.455 243.368 76.7351 243.368 66.1951C243.368 61.8751 249.178 51.4251 253.058 47.2851C254.648 45.5951 260.538 38.7851 262.468 36.9651C265.216 34.2872 267.298 31.0027 268.548 27.375C268.548 27.3751 275.608 29.3551 272.868 38.2451L272.868 38.2451Z" id="Forma" fill="#FFB3A4" stroke="none" />
          <path d="M283.888 50.2951C283.888 52.5251 270.488 51.0551 268.088 51.2251C264.698 51.4651 264.088 58.5351 268.468 58.4651C274.301 59.0395 280.175 59.0395 286.008 58.4651" id="Forma" fill="none" stroke="#E2564B" stroke-width="3" stroke-linecap="round" stroke-linejoin="round" />
          <path d="M285.298 66.2251C270.788 67.0351 267.058 66.2251 267.058 66.2251C264.948 66.3351 263.348 58.6851 268.468 58.4651" id="Forma" fill="none" stroke="#E2564B" stroke-width="3" stroke-linecap="round" stroke-linejoin="round" />
          <path d="M284.598 73.9851C270.898 74.9851 266.358 73.9851 266.358 73.9851C264.358 73.9351 262.978 66.1251 267.058 66.2251" id="Forma" fill="none" stroke="#E2564B" stroke-width="3" stroke-linecap="round" stroke-linejoin="round" />
          <path d="M270.058 74.4251C270.058 74.4251 265.368 73.2951 265.058 76.2651C264.428 81.5351 266.888 82.4651 279.218 81.9951" id="Forma" fill="none" stroke="#E2564B" stroke-width="3" stroke-linecap="round" stroke-linejoin="round" />
        </g>
        <path d="M48.5916 150.881C48.5916 150.881 119.322 115.311 126.252 92.0709C126.252 92.0709 86.3316 24.2909 48.6416 5.01089C10.9516 -14.2691 -38.7484 19.5509 48.5916 150.881L48.5916 150.881Z" id="T-SHIRT" fill="#C24048" stroke="none" />
      </g>
      <path d="M88.7686 417.046C23.9086 400.656 10.3986 391.906 41.3586 348.266C66.0686 313.436 70.2286 181.436 103.529 138.866C136.179 97.1059 182.749 105.866 198.689 107.806C198.689 107.806 225.809 106.916 276.939 144.606C342.139 192.676 304.999 248.726 295.989 267.346C290.489 278.716 267.709 315.836 210.859 380.136C202.529 389.546 210.649 408.886 212.049 412.696C213.449 416.506 159.909 435.046 88.7686 417.046L88.7686 417.046Z" id="TORSO" fill="#C24048" stroke="none" />
      <g id="HEAD-2" transform="translate(197.14862 0)">
        <g id="NECK-2" transform="translate(0 62.365906)">
          <path d="M36.13 0C36.13 0 28.75 27.61 0 45.76C0 45.76 25.8 75.38 74.16 78.24C74.16 78.24 53.16 58.84 81.79 20.5L36.13 0Z" id="Forma" fill="#FFB3A4" stroke="none" />
          <path d="M37.13 0.439987C36.39 2.11998 35.79 3.52998 35.39 4.55998C35.39 4.55998 30.39 21.44 35.9 34.94C40.16 45.43 56.81 61.33 65.8 60.7C65.94 51.48 70.4 35.7 81.8 20.5L37.13 0.439987Z" id="Forma" fill="#3A193F" stroke="none" />
        </g>
        <path d="M35.09 66.1359C35.09 66.1359 38.53 83.8459 42.38 90.0459C49.11 100.886 66.25 111.306 73.38 110.626C78.28 110.156 84.82 110.116 95.38 89.0459C98.38 83.0459 111.81 44.5259 110.16 42.2559C108.51 39.9859 63.38 17.0459 58.84 21.1159C54.3 25.1859 38.26 58.0959 35.09 66.1359L35.09 66.1359Z" id="FACE-2" fill="#FFB3A4" stroke="none" />
        <g id="HAIR-2" transform="translate(31.99585 0)">
          <path d="M8.27417 54.6859C8.27417 54.6859 17.2742 59.1959 21.3642 42.6859C25.0242 27.9759 29.1842 26.3959 44.6442 39.0459C57.2242 49.3459 84.4042 61.2659 94.4242 48.7259C103.604 37.2259 95.8142 27.9759 86.6342 28.8459C75.4542 29.8959 72.4242 4.98589 48.1841 0.545883C28.8242 -3.0341 21.3842 12.1659 21.3842 12.1659C21.3842 12.1659 11.8141 5.16589 4.53415 15.8059C-4.64584 29.1859 2.95416 66.3659 2.95416 66.3659L8.27417 54.6859Z" id="Forma" fill="#41465A" stroke="none" />
          <path d="M40.9142 33.0459C53.3542 45.5959 72.9142 61.1459 84.9941 55.9459" id="Forma" fill="none" stroke="#41465A" stroke-width="3" stroke-linecap="round" stroke-linejoin="round" />
          <path d="M21.6442 12.9459C21.6442 12.9459 20.0342 5.45589 12.6442 6.77589" id="Forma" fill="none" stroke="#41465A" stroke-width="3" />
        </g>
        <path d="M40.78 54.9159C40.78 54.9159 38.52 47.2859 32.56 49.3859C28.11 50.9559 34.85 66.6859 34.85 66.6859L40.78 54.9159Z" id="EAR-2" fill="#FFB3A4" stroke="none" />
      </g>
      <g id="APRON" transform="translate(36.798645 104.251526)">
        <path d="M88.06 281.214C122.06 285.474 152.35 287.314 166.59 287.134L166.59 287.134C170.279 294.284 173.577 301.628 176.47 309.135C180.47 325.774 188.01 350.334 195.76 375.444L212.62 479.974C196.44 490.454 159.12 497.154 122.37 497.844C116.2 485.484 108.92 470.844 101.63 454.844C100.63 468.098 99.2967 482.268 97.63 497.354C59.63 495.034 28.03 485.204 29.82 465.114C40.31 347.114 18.6 283.614 11.22 267.644" id="SHADOW-2" fill="#2B303F" stroke="none" />
        <path d="M143.93 1.28438C143.93 1.28438 214.19 110.594 115.4 183.114C22.72 251.114 8.63 237.114 8.63 237.114L0 250.744C0 250.744 49.13 330.744 42.1 458.394C39.7 501.954 222.55 496.034 220.92 465.484C219.29 434.934 167.87 286.354 174.03 275.884C180.19 265.414 258.4 196.364 264.1 133.614C268.62 83.8844 248.17 46.8444 248.17 46.8444L234.58 35.4444C234.58 35.4444 251.89 83.7044 242.71 119.144C242.71 119.144 199.5 113.034 196.05 111.004C192.6 108.974 184.26 38.8844 161.58 3.87439C157.18 -2.91563 143.93 1.28438 143.93 1.28438L143.93 1.28438Z" id="APRON-2" fill="#FFF4DE" stroke="none" />
      </g>
      <g id="LEFT_HAND-2" transform="translate(99.49863 117.74461)">
        <path d="M223.95 359.901L280.95 359.901C287.87 359.901 293.48 365.511 293.48 372.431L293.48 377.091C293.48 383.981 287.919 389.577 281.03 389.621L224.03 389.621L224.03 359.901L223.95 359.901Z" id="Forma" fill="#C24048" stroke="#C24048" stroke-width="3" />
        <g id="HAND-4" transform="translate(10.318695 5.8234863)">
          <path d="M184.811 338.538C186.581 341.428 189.811 343.418 194.811 342.828C201.581 342.028 222.381 340.218 230.531 349.388C235.781 355.288 240.451 359.528 240.451 359.528C240.451 359.528 236.311 363.828 230.701 361.368C220.911 357.088 208.521 362.128 204.451 364.368C200.381 366.608 187.501 369.188 174.991 356.368C162.481 343.548 184.811 338.538 184.811 338.538L184.811 338.538Z" id="Forma" fill="#FFB3A4" stroke="none" />
          <path d="M59.4713 256.678L59.4713 256.678C97.1713 300.858 171.001 354.098 178.241 359.048C183.981 362.978 195.991 355.318 188.611 344.588C180.791 333.188 129.391 241.238 99.4013 209.128C99.9713 169.338 103.251 52.8478 80.4013 15.2278C61.9613 -15.1922 17.3313 4.95778 7.7713 32.0978C-4.96869 68.3478 -7.04869 139.478 41.0413 229.708C43.4513 234.238 52.0113 248.478 59.4713 256.678L59.4713 256.678Z" id="Forma" fill="#FFB3A4" stroke="none" />
          <path d="M99.4913 132.628C73.4913 143.518 31.5613 147.398 9.37131 148.728C-4.0887 97.2078 -0.788696 56.4778 7.8013 32.0978C17.3613 4.95778 61.9813 -15.1822 80.4313 15.2278C93.9413 37.4778 98.3013 87.3678 99.4913 132.628L99.4913 132.628Z" id="Forma" fill="#3A193F" stroke="none" />
        </g>
        <path d="M4.83 142.301C4.83 142.301 74.88 146.991 111.14 131.101C111.14 131.101 119.62 -4.21873 54.82 0.101273C-22.97 5.30128 4.83 142.301 4.83 142.301L4.83 142.301Z" id="T-SHIRT-2" fill="#C24048" stroke="none" />
        <path d="M209.14 374.711C209.14 366.532 215.771 359.901 223.95 359.901C232.129 359.901 238.76 366.532 238.76 374.711C238.76 382.891 232.129 389.521 223.95 389.521C215.771 389.521 209.14 382.891 209.14 374.711Z" id="Círculo" fill="#FFFFFF" fill-rule="evenodd" stroke="#C24048" stroke-width="3" />
        <path d="M204.71 374.636L204.71 374.071C204.71 373.232 205.007 372.515 205.6 371.922C206.194 371.328 206.911 371.031 207.75 371.031L220.31 371.031C221.149 371.031 221.866 371.328 222.46 371.922C223.053 372.515 223.35 373.232 223.35 374.071L223.35 375.201C223.35 376.041 223.053 376.757 222.46 377.351C221.866 377.944 221.149 378.241 220.31 378.241L207.75 378.241C206.911 378.241 206.194 377.944 205.6 377.351C205.007 376.757 204.71 376.041 204.71 375.201L204.71 374.636Z" id="Retângulo" fill="#C24048" fill-rule="evenodd" stroke="#C24048" stroke-width="3" />
      </g>
    </g>
    <g id="TABLE" transform="translate(327.56 639.92)">
      <path d="M0 11.665L0 9.83C0 7.11552 0.959713 4.79857 2.87914 2.87914C4.79857 0.959713 7.11552 0 9.83 0L647.31 0C650.025 0 652.341 0.959713 654.261 2.87914C656.18 4.79857 657.14 7.11552 657.14 9.83L657.14 13.5C657.14 16.2145 656.18 18.5314 654.261 20.4509C652.341 22.3703 650.025 23.33 647.31 23.33L9.83 23.33C7.11552 23.33 4.79857 22.3703 2.87914 20.4509C0.959713 18.5314 0 16.2145 0 13.5L0 11.665Z" id="Retângulo" fill="#FFFFFF" fill-rule="evenodd" stroke="#F1B104" stroke-width="3" />
      <path d="M606.73 23.32L629.22 23.32L629.22 454.06L606.73 454.06L606.73 23.32Z" id="Retângulo" fill="#FFFFFF" fill-rule="evenodd" stroke="#F1B104" stroke-width="3" />
      <path d="M27.92 23.32L50.4 23.32L50.4 454.06L27.92 454.06L27.92 23.32Z" id="Retângulo" fill="#FFFFFF" fill-rule="evenodd" stroke="#F1B104" stroke-width="3" />
      <path d="M27.92 23.32L50.4 23.32L50.4 32.94L27.92 30.54L27.92 23.32L27.92 23.32Z" id="Polígono" fill="#F1B104" fill-rule="evenodd" stroke="none" />
      <path d="M629.22 23.32L629.22 33.54L606.73 30.54L606.73 23.32L629.22 23.32L629.22 23.32Z" id="Polígono" fill="#F1B104" fill-rule="evenodd" stroke="none" />
    </g>
    <path d="M396.52 181.09C396.52 181.09 391.94 177.55 384.05 181.09" id="Forma" fill="none" stroke="#41465A" stroke-width="3" stroke-linecap="round" stroke-linejoin="round" />
    <path d="M386.881 197.196C385.392 196.938 384.457 195.167 384.791 193.24C385.125 191.313 386.603 189.96 388.091 190.218C389.58 190.477 390.515 192.248 390.181 194.175C389.847 196.102 388.369 197.454 386.881 197.196Z" id="oval" fill="#242854" fill-rule="evenodd" stroke="none" />
    <path d="M413.905 202.097C412.426 201.749 411.593 199.915 412.043 198.001C412.493 196.088 414.057 194.818 415.535 195.166C417.014 195.514 417.847 197.347 417.397 199.261C416.947 201.175 415.383 202.444 413.905 202.097Z" id="oval" fill="#242854" fill-rule="evenodd" stroke="none" />
    <path d="M2475.58 3870.22L2481.67 4234L2444.59 4278.66" id="Polígono" fill="none" fill-rule="evenodd" stroke="#E2564B" stroke-width="3" stroke-linecap="round" stroke-linejoin="round" />
    <path d="M385.5 211.5C385.5 211.5 385.5 219.5 391.5 221.5" id="Forma" fill="none" stroke="#41465A" stroke-width="3" stroke-linecap="round" stroke-linejoin="round" />
    <path d="M348.5 188.5C348.5 182.977 352.977 178.5 358.5 178.5C364.023 178.5 368.5 182.977 368.5 188.5C368.5 194.023 364.023 198.5 358.5 198.5C352.977 198.5 348.5 194.023 348.5 188.5Z" id="Círculo" fill="#FFB3A4" fill-rule="evenodd" stroke="none" />
    <path d="M715.613 417.854C714.32 417.369 713.745 415.714 714.329 414.158C714.913 412.601 716.434 411.732 717.727 412.217C719.02 412.702 719.595 414.357 719.011 415.913C718.427 417.47 716.906 418.339 715.613 417.854Z" id="oval" fill="#242854" fill-rule="evenodd" stroke="none" />
    <path d="M732.107 423.356C730.814 422.871 730.24 421.216 730.823 419.66C731.407 418.104 732.929 417.235 734.221 417.72C735.514 418.205 736.089 419.859 735.505 421.416C734.921 422.972 733.4 423.841 732.107 423.356Z" id="oval" fill="#242854" fill-rule="evenodd" stroke="none" />
    <path d="M5723.34 6080.33L5661.09 6204.27L5686.65 6294.96" id="Polígono" fill="none" fill-rule="evenodd" stroke="#E2564B" stroke-width="3" stroke-linecap="round" stroke-linejoin="round" />
    <path d="M733.56 410C733.56 410 737.5 409.48 741.5 413.48" id="Forma" fill="none" stroke="#41465A" stroke-width="3" stroke-linecap="round" stroke-linejoin="round" />
    <path d="M719.5 435.5C723.912 437.153 728.879 436.187 732.35 433" id="Forma" fill="none" stroke="#41465A" stroke-width="3" stroke-linecap="round" stroke-linejoin="round" />
    <path d="M762 390.28C754 390.84 747.06 384.08 747.06 384.08C747.06 384.08 753.06 376.41 760.98 375.84C768.9 375.27 775.91 382 775.91 382C775.91 382 770 389.71 762 390.28L762 390.28Z" id="Forma" fill="#F1B104" stroke="none" />
    <path d="M733.26 374.56C737.09 381.56 746.54 383.81 746.54 383.81C746.54 383.81 749.79 374.66 745.97 367.64C742.15 360.62 732.69 358.39 732.69 358.39C732.69 358.39 729.44 367.54 733.26 374.56L733.26 374.56Z" id="Forma" fill="#F1B104" stroke="none" />
    <path d="M744.007 384.297C743.274 382.201 744.378 379.908 746.474 379.175C748.569 378.442 750.863 379.546 751.596 381.642C752.329 383.738 751.224 386.031 749.128 386.764C747.033 387.497 744.74 386.392 744.007 384.297Z" id="Círculo" fill="#F1B104" fill-rule="evenodd" stroke="none" />
    <path d="M746.39 385.41C746.39 385.41 765.58 400.73 763.79 422.41C764.21 422.67 767.79 422.41 767.79 422.41C767.79 422.41 774.18 403.62 757.09 388.33" id="Forma" fill="#F1B104" stroke="none" />
  </g>
</svg>